<svg width="25" height="25" viewBox="0 0 25 25" fill="none" xmlns="http://www.w3.org/2000/svg">
<g clip-path="url(#clip0_701_40)">
<path d="M0.765762 22.6399H0.810807C3.13377 15.9577 5.79265 9.78951 9.14414 4.95013C9.91486 3.83727 10.7176 2.81999 11.5315 1.83128C11.778 1.53192 12.2237 0.802065 12.5225 0.817126C12.8167 0.831958 13.2226 1.52618 13.4685 1.81913C14.304 2.81441 15.1141 3.90332 15.9009 5.03755C19.2586 9.87788 21.9091 15.8586 24.2342 22.5524C24.2735 22.0304 23.7873 20.6682 23.6486 20.236C23.1705 18.7466 22.8221 17.9493 22.2973 16.521C20.3874 11.3231 17.9046 6.83328 15.1802 3.26312C14.556 2.44523 13.9342 1.62775 13.2883 0.87412C13.0822 0.633644 12.7694 0.114246 12.5225 0.100289C12.2437 0.0845309 11.8565 0.723373 11.6216 0.986349C10.7958 1.91076 10.0085 2.97018 9.23423 4.04633C6.60053 7.70659 4.34454 12.2539 2.49009 17.3951C1.92854 18.9519 1.06419 20.8225 0.765762 22.6399Z" fill="#142D44"/>
<path d="M0.405396 24.9898C2.40684 23.7259 4.37316 22.5357 6.44143 21.738C7.03742 21.5082 7.64076 21.3219 8.24323 21.1683C8.46283 21.1122 9.02535 20.8938 9.02535 20.8938C9.02535 20.8938 9.30066 19.9687 9.40328 19.5702C9.6772 18.5065 9.95422 17.4258 10.1993 16.3359C10.9056 13.1948 11.6919 10.0064 12.5225 6.98276L15.0339 17.1226L15.7096 19.8324L16.0134 20.8938L16.7567 21.1683L18.3784 21.738L24.6396 24.9898C24.1698 22.8766 23.3149 20.8776 22.6069 19.0457C20.7228 14.1709 18.5048 9.79998 15.991 6.14142C15.2028 4.99426 14.3843 3.94511 13.5585 2.90439C13.2968 2.57449 12.8427 1.81093 12.5225 1.80654C12.2006 1.80213 11.7517 2.54785 11.4865 2.86999C10.6237 3.918 9.76634 4.99581 8.96395 6.2144C6.47846 9.98906 4.28598 14.3153 2.39308 19.2205C1.72652 20.9479 0.801472 22.962 0.405396 24.9898Z" fill="#437185"/>
</g>
<defs>
<clipPath id="clip0_701_40">
<rect width="25" height="25" fill="white"/>
</clipPath>
</defs>
</svg>
