<svg width="27" height="27" viewBox="0 0 27 27" fill="none" xmlns="http://www.w3.org/2000/svg">
<circle cx="13.5" cy="13.5" r="13" stroke="#012169"/>
<mask id="mask0" mask-type="alpha" maskUnits="userSpaceOnUse" x="1" y="1" width="25" height="25">
<circle cx="13.5" cy="13.5" r="12.5" fill="#012169"/>
</mask>
<g mask="url(#mask0)">
<circle cx="13.5" cy="13.5" r="12.5" fill="#012169"/>
<path fill-rule="evenodd" clip-rule="evenodd" d="M24.4039 22.4704L25.7596 20.5343L15.2026 13.1421L25.7596 5.75L24.4039 3.81384L13.1421 11.6994L1.88039 3.81384L0.524676 5.75L11.0817 13.1421L0.524658 20.5343L1.88037 22.4704L13.1421 14.5848L24.4039 22.4704Z" fill="#C8102E"/>
<path fill-rule="evenodd" clip-rule="evenodd" d="M27.1523 20.2887L24.6494 23.8632L13.142 15.8056L1.6347 23.8632L-0.868164 20.2887L9.33819 13.1422L-0.868146 5.9956L1.63472 2.42114L13.142 10.4787L24.6494 2.42114L27.1522 5.9956L16.9459 13.1422L27.1523 20.2887ZM15.2025 13.1422L25.7595 5.75003L24.4038 3.81387L13.142 11.6994L1.88029 3.81387L0.524582 5.75003L11.0816 13.1422L0.524565 20.5343L1.88027 22.4704L13.142 14.5849L24.4038 22.4704L25.7595 20.5343L15.2025 13.1422Z" fill="white"/>
<path fill-rule="evenodd" clip-rule="evenodd" d="M15.5834 -1H11.4167V11.5H-1.91663L-1.91663 15.6667H11.4167V29H15.5834V15.6667H28.9167V11.5H15.5834V-1Z" fill="#C8102E"/>
<path fill-rule="evenodd" clip-rule="evenodd" d="M9.91671 -2.5H17.0834V10H30.4167V17.1667H17.0834V30.5H9.91671V17.1667H-3.41663L-3.41663 10H9.91671V-2.5ZM11.4167 11.5H-1.91663V15.6667H11.4167V29H15.5834V15.6667H28.9167V11.5H15.5834V-1H11.4167V11.5Z" fill="white"/>
</g>
</svg>
