<svg width="512" height="512" viewBox="0 0 512 512" fill="none" xmlns="http://www.w3.org/2000/svg">
<g clip-path="url(#clip0_525_2995)">
<path d="M0 185.295C0 120.436 0 88.0061 12.6225 63.2331C23.7255 41.4421 41.4421 23.7255 63.2331 12.6225C88.0061 0 120.436 0 185.295 0H326.705C391.564 0 423.994 0 448.767 12.6225C470.558 23.7255 488.274 41.4421 499.378 63.2331C512 88.0061 512 120.436 512 185.295V326.705C512 391.564 512 423.994 499.378 448.767C488.274 470.558 470.558 488.274 448.767 499.378C423.994 512 391.564 512 326.705 512H185.295C120.436 512 88.0061 512 63.2331 499.378C41.4421 488.274 23.7255 470.558 12.6225 448.767C0 423.994 0 391.564 0 326.705V185.295Z" fill="#B30B00"/>
<path d="M403.019 290.699C379.113 264.485 313.967 275.953 298.229 277.592C275.916 254.654 260.177 228.645 253.802 218.814C261.771 194.238 268.146 166.59 268.146 140.376C268.146 115.8 258.583 91.4286 233.282 91.4286C223.72 91.4286 215.751 96.3438 210.969 104.536C199.813 124.197 204.594 163.313 222.126 204.069C212.563 233.56 196.626 277.592 177.699 311.793C152.199 321.624 96.6162 347.633 91.8349 377.125C90.2411 385.317 93.4286 395.147 99.8037 400.062C106.179 406.616 114.148 408.254 122.117 408.254C155.387 408.254 188.856 360.945 212.762 318.347C231.888 311.793 261.97 301.963 292.252 297.048C327.116 329.816 358.991 334.526 374.929 334.526C397.242 334.526 405.211 324.696 408.199 316.504C412.383 308.721 409.394 297.253 403.019 290.699ZM380.706 307.083C379.113 313.637 371.144 320.19 356.8 316.913C339.268 311.998 323.53 303.806 310.78 292.337C321.936 290.699 348.831 287.422 367.956 290.699C374.331 292.337 382.3 297.253 380.706 307.083ZM226.509 111.089C228.103 107.813 231.29 106.174 234.478 106.174C242.447 106.174 244.04 116.005 244.04 124.197C242.447 143.857 239.259 164.952 232.884 182.974C220.134 147.134 221.727 120.92 226.509 111.089ZM224.915 295.614C232.884 280.869 242.447 253.221 245.634 243.39C253.603 258.136 267.947 274.52 274.322 282.507C275.916 281.073 247.228 287.422 224.915 295.614ZM170.926 333.297C148.812 369.137 128.093 392.075 115.343 392.075C113.749 392.075 110.562 392.075 108.968 390.437C107.374 387.16 105.78 383.883 107.374 380.606C108.968 367.499 134.468 349.477 170.926 333.297Z" fill="white"/>
</g>
<defs>
<clipPath id="clip0_525_2995">
<rect width="512" height="512" fill="white"/>
</clipPath>
</defs>
</svg>
