<svg width="512" height="512" viewBox="0 0 512 512" fill="none" xmlns="http://www.w3.org/2000/svg">
<g clip-path="url(#clip0_519_2186)">
<path fill-rule="evenodd" clip-rule="evenodd" d="M173.214 7.426C170.881 7.44826 168.46 8.01104 166.254 9.23391C159.248 13.1173 156.679 22.1204 160.559 29.1209L176.378 57.6858C138.266 81.2673 113.011 121.545 113.011 167.516C113.011 167.709 113.011 167.999 113.011 168.284C113.011 168.385 113.01 168.443 113.011 168.556C113.011 168.706 113.011 168.925 113.011 168.962V176.058C105.691 167.636 94.9314 162.318 82.9095 162.318C60.8847 162.318 43 180.203 43 202.228V325.165C43 347.19 60.8847 365.075 82.9095 365.075C94.9314 365.075 105.691 359.757 113.011 351.335V368.555C113.011 391.772 132.009 410.77 155.226 410.77H165.937V465.459C165.937 487.484 183.822 505.368 205.847 505.368C227.872 505.368 245.756 487.484 245.756 465.459V410.77H264.288V465.459C264.288 487.484 282.172 505.368 304.197 505.368C326.222 505.368 344.107 487.484 344.107 465.459V410.77H354.818C378.035 410.77 397.033 391.772 397.033 368.555V351.335C404.353 359.757 415.113 365.075 427.135 365.075C449.159 365.075 467.044 347.19 467.044 325.165V202.228C467.044 180.203 449.159 162.318 427.135 162.318C415.113 162.318 404.353 167.636 397.033 176.058V169.098V168.962C397.034 168.745 397.033 168.528 397.033 168.556C397.036 168.122 397.033 167.777 397.033 167.516C397.033 121.553 371.722 81.3143 333.621 57.731L349.485 29.1208C353.365 22.1203 350.796 13.1173 343.79 9.23386C341.584 8.011 339.163 7.44825 336.83 7.42596C331.656 7.37644 326.578 10.103 323.903 14.9288L307.316 44.8948C291.096 38.9094 273.449 35.6293 255.022 35.6293C236.614 35.6293 218.934 38.8759 202.728 44.8496L186.141 14.9288C183.466 10.103 178.388 7.37655 173.214 7.42596V7.426V7.426Z" fill="white"/>
<path fill-rule="evenodd" clip-rule="evenodd" d="M82.9105 172.714C66.4747 172.714 53.3965 185.792 53.3965 202.228V325.165C53.3965 341.601 66.4747 354.679 82.9105 354.679C99.3464 354.679 112.425 341.601 112.425 325.165V202.228C112.425 185.792 99.3464 172.714 82.9105 172.714V172.714V172.714ZM427.136 172.714C410.7 172.714 397.622 185.792 397.622 202.228V325.165C397.622 341.601 410.7 354.679 427.136 354.679C443.571 354.679 456.65 341.601 456.65 325.165V202.228C456.65 185.792 443.571 172.714 427.136 172.714V172.714V172.714Z" fill="#A4C639"/>
<path fill-rule="evenodd" clip-rule="evenodd" d="M205.847 313.007C189.411 313.007 176.333 326.085 176.333 342.521V465.458C176.333 481.894 189.411 494.972 205.847 494.972C222.283 494.972 235.361 481.894 235.361 465.458V342.521C235.361 326.085 222.283 313.007 205.847 313.007V313.007V313.007ZM304.197 313.007C287.761 313.007 274.683 326.085 274.683 342.521V465.458C274.683 481.894 287.761 494.972 304.197 494.972C320.633 494.972 333.711 481.894 333.711 465.458V342.521C333.711 326.085 320.633 313.007 304.197 313.007V313.007V313.007Z" fill="#A4C639"/>
<path fill-rule="evenodd" clip-rule="evenodd" d="M173.305 17.8215C172.607 17.8286 171.957 18.0086 171.316 18.3639C169.211 19.5305 168.519 21.9489 169.689 24.0588L190.48 61.618C150.479 82.4315 123.461 121.985 123.406 167.38H386.637C386.583 121.985 359.565 82.4315 319.564 61.618L340.355 24.0588C341.525 21.9489 340.833 19.5305 338.728 18.3639C338.087 18.0086 337.437 17.8281 336.739 17.8215C335.246 17.8071 333.83 18.5534 333.033 19.991L311.971 57.957C294.741 50.3145 275.416 46.0248 255.022 46.0248C234.628 46.0248 215.303 50.3145 198.073 57.957L177.011 19.991C176.214 18.5534 174.798 17.8072 173.305 17.8215V17.8215V17.8215ZM123.406 177.776V368.555C123.406 386.183 137.598 400.374 155.226 400.374H354.818C372.446 400.374 386.637 386.183 386.637 368.555V177.776H123.406V177.776V177.776Z" fill="#A4C639"/>
<path fill-rule="evenodd" clip-rule="evenodd" d="M194.276 97.2338C188.267 97.2338 183.293 102.208 183.293 108.217C183.293 114.226 188.267 119.2 194.276 119.2C200.285 119.2 205.259 114.226 205.259 108.217C205.259 102.208 200.285 97.2338 194.276 97.2338V97.2338V97.2338ZM315.767 97.2338C309.758 97.2338 304.784 102.208 304.784 108.217C304.784 114.226 309.758 119.2 315.767 119.2C321.776 119.2 326.75 114.226 326.75 108.217C326.75 102.208 321.776 97.2338 315.767 97.2338V97.2338V97.2338Z" fill="white"/>
</g>
<defs>
<clipPath id="clip0_519_2186">
<rect width="425" height="499" fill="white" transform="translate(43 7)"/>
</clipPath>
</defs>
</svg>
