<svg width="512" height="512" viewBox="0 0 512 512" fill="none" xmlns="http://www.w3.org/2000/svg">
<path d="M26.6976 342.817L0.345093 428.837H21.0818L25.8383 412.809H51.5443L56.1723 428.837H78.722L52.3715 342.817H26.6976ZM31.0465 395.506L38.875 368.752L46.6151 395.506H31.0465Z" fill="#00979C"/>
<path d="M128.269 389.593C127.958 389.259 127.641 388.944 127.317 388.649C127.966 388.404 128.598 388.143 129.217 387.858C131.726 386.705 133.925 385.161 135.752 383.28C137.599 381.381 139.051 379.092 140.065 376.476C141.069 373.892 141.579 370.922 141.579 367.655C141.579 363.152 140.766 359.257 139.167 356.074C137.551 352.856 135.212 350.205 132.218 348.196C129.313 346.248 125.779 344.841 121.713 344.015C117.806 343.222 113.405 342.817 108.637 342.817H81.736V428.837H102.366V395.227H102.979C105.235 395.227 107.117 395.722 108.729 396.746C110.329 397.76 111.556 399.256 112.486 401.328L124.954 428.837H148.957L133.809 398.152C131.973 394.425 130.16 391.629 128.269 389.593ZM119.296 373.09C118.7 374.227 117.873 375.158 116.766 375.938C115.6 376.757 114.152 377.385 112.457 377.807C110.669 378.255 108.627 378.479 106.386 378.479H102.366V360.371H106.9C111.622 360.371 115.132 361.112 117.33 362.576C119.246 363.85 120.178 365.999 120.178 369.147C120.178 370.669 119.888 371.96 119.296 373.09Z" fill="#00979C"/>
<path d="M209.4 353.032C205.927 349.541 201.546 346.927 196.38 345.266C191.344 343.642 185.417 342.817 178.765 342.817H151.481V428.837H175.231C182.895 428.837 189.599 427.793 195.155 425.735C200.797 423.649 205.509 420.621 209.157 416.738C212.8 412.863 215.514 408.129 217.221 402.67C218.895 397.325 219.743 391.313 219.743 384.802C219.743 377.704 218.893 371.478 217.215 366.296C215.5 360.987 212.872 356.526 209.4 353.032ZM192.533 405.31C188.951 409.289 183.755 411.223 176.647 411.223H172.109V360.431H177.737C181.715 360.431 185.054 360.993 187.658 362.104C190.184 363.178 192.137 364.696 193.631 366.74C195.157 368.836 196.263 371.466 196.918 374.552C197.606 377.817 197.958 381.6 197.958 385.796C197.958 394.747 196.133 401.312 192.533 405.31Z" fill="#00979C"/>
<path d="M269.438 397.54C269.438 400.505 269.165 403.033 268.621 405.053C268.115 406.938 267.37 408.478 266.402 409.629C265.474 410.735 264.34 411.516 262.937 412.016C261.409 412.562 259.455 412.837 257.126 412.837C254.662 412.837 252.63 412.522 251.086 411.897C249.603 411.295 248.41 410.434 247.438 409.267C246.462 408.093 245.764 406.619 245.36 404.88C244.91 402.961 244.684 400.702 244.684 398.16V342.817H224.055V399.092C224.055 403.742 224.632 408.01 225.764 411.777C226.943 415.69 228.886 419.073 231.542 421.826C234.199 424.577 237.676 426.705 241.879 428.145C245.963 429.552 250.898 430.265 256.546 430.265C261.595 430.265 266.229 429.552 270.313 428.145C274.49 426.713 278.09 424.543 281.015 421.692C283.942 418.836 286.213 415.242 287.765 411.01C289.291 406.854 290.066 401.987 290.066 396.544V342.817H269.438V397.54Z" fill="#00979C"/>
<path d="M300.616 360.122H319.128V411.41H300.616V428.837H358.527V411.41H340.015V360.122H358.527V342.817H300.616V360.122Z" fill="#00979C"/>
<path d="M415.934 391.831L392.872 342.817H369.524V428.837H388.736V378.891L411.921 428.837H435.151V342.817H415.934V391.831Z" fill="#00979C"/>
<path d="M501.935 352.994C495.912 345.334 486.882 341.451 475.103 341.451C470.063 341.451 465.256 342.345 460.815 344.106C456.311 345.891 452.332 348.669 448.985 352.372C445.668 356.042 443.034 360.762 441.161 366.398C439.307 371.962 438.368 378.634 438.368 386.232C438.368 400.266 441.353 411.185 447.24 418.69C453.264 426.372 462.293 430.265 474.073 430.265C479.114 430.265 483.925 429.371 488.366 427.611C492.872 425.824 496.849 423.043 500.192 419.346C503.505 415.678 506.139 410.96 508.019 405.32C509.868 399.758 510.807 393.086 510.807 385.485C510.807 371.41 507.822 360.477 501.935 352.994ZM488.358 397.69C487.768 400.864 486.846 403.541 485.62 405.647C484.455 407.653 483.013 409.123 481.216 410.137C479.425 411.146 477.195 411.658 474.589 411.658C469.433 411.658 465.839 409.739 463.602 405.794C461.144 401.459 459.897 394.628 459.897 385.485C459.897 381.192 460.207 377.335 460.821 374.028C461.411 370.86 462.339 368.187 463.584 366.081C464.768 364.067 466.214 362.594 468.003 361.576C469.768 360.57 471.982 360.06 474.589 360.06C479.785 360.06 483.389 361.975 485.603 365.914C488.043 370.251 489.28 377.088 489.28 386.232C489.28 390.536 488.971 394.391 488.358 397.69Z" fill="#00979C"/>
<path d="M481.007 92.5249H484.667V102.148H487.263V92.5249H490.954V90.1356H481.007V92.5249Z" fill="#00979C"/>
<path d="M499.987 90.1356L497.483 98.3234L494.893 90.1356H491.506V102.148H493.947V94.4744L496.369 102.148H498.598L500.894 94.6732V102.148H503.324V90.1356H499.987Z" fill="#00979C"/>
<path d="M380.537 322.594C347.833 322.594 319.872 311.567 295.265 289.013C280.064 275.085 267.531 258.021 256 240.278C244.471 258.021 231.936 275.085 216.737 289.013C190.296 313.246 159.982 324.172 124.079 322.411C55.6103 322.114 0 268.08 0 201.706C0 135.149 55.9155 81 124.645 81C162.255 81 193.92 93.4464 221.442 119.048C234.661 131.346 245.82 145.611 256 160.537C266.18 145.611 277.341 131.346 290.558 119.048C318.08 93.4464 349.745 81 387.355 81C456.086 81 512 135.149 512 201.706C512 268.08 456.392 322.114 387.921 322.411C385.434 322.534 382.97 322.594 380.537 322.594ZM281.039 200.095C294.68 222.227 307.92 242.828 324.047 257.605C342.25 274.288 361.436 281.151 386.239 279.84L387.355 279.809C432.593 279.809 469.398 244.773 469.398 201.706C469.398 158.64 432.593 123.602 387.355 123.602C360.649 123.602 339.111 132.067 319.575 150.239C304.985 163.814 292.938 181.206 281.039 200.095ZM124.645 123.602C79.4069 123.602 42.6017 158.64 42.6017 201.706C42.6017 244.773 79.4069 279.809 124.645 279.809L125.763 279.84C150.568 281.151 169.75 274.288 187.953 257.605C204.08 242.828 217.322 222.227 230.961 200.095C219.062 181.206 207.015 163.814 192.427 150.239C172.889 132.067 151.351 123.602 124.645 123.602Z" fill="#00979C"/>
<path d="M392.989 186.223V163.122H368.943V186.223H345.844V210.152H368.943V233.425H392.989V210.152H416.091V186.223H392.989Z" fill="#00979C"/>
<path d="M90.0544 185.934H165.984V210.614H90.0544V185.934Z" fill="#00979C"/>
</svg>
