<svg width="512" height="512" viewBox="0 0 512 512" fill="none" xmlns="http://www.w3.org/2000/svg">
<path fill-rule="evenodd" clip-rule="evenodd" d="M477.696 153.083C477.693 144.698 475.899 137.288 472.273 130.929C468.71 124.675 463.375 119.434 456.219 115.29C397.148 81.2291 338.019 47.2725 278.967 13.1771C263.047 3.98609 247.611 4.32116 231.809 13.6441C208.297 27.5104 90.5799 94.9531 55.5017 115.271C41.0556 123.634 34.026 136.432 34.0226 153.068C34 221.566 34.0226 290.062 34 358.562C34.0035 366.764 35.7205 374.029 39.1875 380.293C42.7517 386.736 48.1615 392.121 55.4826 396.359C90.5625 416.677 208.295 484.115 231.802 497.984C247.611 507.312 263.047 507.646 278.972 498.451C338.026 464.354 397.158 430.399 456.238 396.339C463.559 392.102 468.969 386.714 472.533 380.276C475.995 374.012 477.715 366.746 477.719 358.543C477.719 358.543 477.719 221.583 477.696 153.083" fill="#5C8DBC"/>
<path fill-rule="evenodd" clip-rule="evenodd" d="M256.538 255.148L39.1875 380.293C42.7517 386.736 48.1615 392.122 55.4826 396.359C90.5625 416.677 208.295 484.115 231.802 497.984C247.611 507.313 263.047 507.646 278.972 498.451C338.026 464.354 397.158 430.399 456.238 396.339C463.559 392.102 468.969 386.714 472.533 380.276L256.538 255.148" fill="#1A4674"/>
<path fill-rule="evenodd" clip-rule="evenodd" d="M192.161 292.217C204.809 314.297 228.585 329.189 255.859 329.189C283.302 329.189 307.214 314.108 319.797 291.792L256.538 255.148L192.161 292.217" fill="#1A4674"/>
<path fill-rule="evenodd" clip-rule="evenodd" d="M477.696 153.083C477.693 144.698 475.899 137.288 472.273 130.929L256.538 255.148L472.533 380.276C475.995 374.012 477.715 366.747 477.719 358.543C477.719 358.543 477.719 221.583 477.696 153.083" fill="#1B598E"/>
<path fill-rule="evenodd" clip-rule="evenodd" d="M465.819 264.092H448.941V280.974H432.059V264.092H415.182V247.215H432.059V230.337H448.941V247.215H465.819V264.092" fill="white"/>
<path fill-rule="evenodd" clip-rule="evenodd" d="M404.231 264.092H387.354V280.974H370.476V264.092H353.597V247.215H370.476V230.337H387.354V247.215H404.231V264.092" fill="white"/>
<path fill-rule="evenodd" clip-rule="evenodd" d="M319.797 291.792C307.214 314.108 283.302 329.189 255.859 329.189C228.585 329.189 204.809 314.297 192.161 292.217C186.017 281.488 182.484 269.066 182.484 255.814C182.484 215.292 215.337 182.441 255.859 182.441C282.958 182.441 306.609 197.148 319.319 219.002L383.453 182.071C357.962 138.068 310.37 108.464 255.859 108.464C174.477 108.464 108.507 174.436 108.507 255.814C108.507 282.512 115.609 307.549 128.023 329.144C153.45 373.38 201.177 403.167 255.859 403.167C310.642 403.167 358.444 373.26 383.835 328.894L319.797 291.792" fill="white"/>
</svg>
