<svg width="512" height="512" viewBox="0 0 512 512" fill="none" xmlns="http://www.w3.org/2000/svg">
<path d="M498.445 199.959C494.353 199.959 491.041 196.641 491.041 192.555C491.041 188.462 494.353 185.151 498.445 185.151C502.532 185.151 505.849 188.462 505.849 192.555C505.849 196.641 502.532 199.959 498.445 199.959ZM424.913 326.462C420.82 326.462 417.509 323.144 417.509 319.058C417.509 314.965 420.82 311.654 424.913 311.654C429 311.654 432.311 314.965 432.311 319.058C432.311 323.144 429 326.462 424.913 326.462ZM498.445 179C490.96 179 484.891 185.069 484.891 192.555C484.891 194.152 485.293 195.639 485.8 197.061L422.214 306.045C416.069 307.334 411.358 312.528 411.358 319.058C411.358 326.543 417.427 332.612 424.913 332.612C432.393 332.612 438.462 326.543 438.462 319.058C438.462 317.554 438.059 316.178 437.61 314.825L501.518 205.485C507.476 204.057 512 198.95 512 192.555C512 185.069 505.931 179 498.445 179Z" fill="#0C544C"/>
<path d="M442.986 199.959C438.893 199.959 435.582 196.641 435.582 192.555C435.582 188.462 438.893 185.151 442.986 185.151C447.072 185.151 450.384 188.462 450.384 192.555C450.384 196.641 447.072 199.959 442.986 199.959ZM369.447 326.462C365.36 326.462 362.043 323.144 362.043 319.058C362.043 314.965 365.36 311.654 369.447 311.654C373.54 311.654 376.851 314.965 376.851 319.058C376.851 323.144 373.54 326.462 369.447 326.462ZM442.986 179C435.494 179 429.431 185.069 429.431 192.555C429.431 194.152 429.833 195.639 430.34 197.061L366.754 306.045C360.603 307.334 355.893 312.528 355.893 319.058C355.893 326.543 361.961 332.612 369.447 332.612C376.933 332.612 383.002 326.543 383.002 319.058C383.002 317.554 382.599 316.178 382.15 314.825L446.058 205.485C452.016 204.057 456.54 198.95 456.54 192.555C456.54 185.069 450.465 179 442.986 179Z" fill="#073551"/>
<path d="M341.708 263.831C347.696 263.831 352.61 267.772 354.406 273.153C354.855 274.505 355.263 275.881 355.263 277.385C355.263 284.865 349.194 290.94 341.708 290.94C334.223 290.94 328.154 284.865 328.154 277.385C328.154 270.856 332.864 265.662 339.009 264.373C339.913 264.187 340.752 263.831 341.708 263.831ZM341.708 269.981C337.622 269.981 334.304 273.293 334.304 277.385C334.304 281.472 337.622 284.784 341.708 284.784C345.795 284.784 349.112 281.472 349.112 277.385C349.112 273.293 345.795 269.981 341.708 269.981ZM341.708 216.469C347.69 216.469 352.61 220.41 354.406 225.791C354.855 227.143 355.263 228.525 355.263 230.023C355.263 237.509 349.194 243.578 341.708 243.578C334.223 243.578 328.154 237.509 328.154 230.023C328.154 223.494 332.864 218.299 339.009 217.017C339.913 216.824 340.752 216.469 341.708 216.469ZM341.708 222.619C337.616 222.619 334.304 225.937 334.304 230.023C334.304 234.11 337.616 237.427 341.708 237.427C345.795 237.427 349.112 234.11 349.112 230.023C349.112 225.937 345.795 222.619 341.708 222.619Z" fill="#073551"/>
<path d="M72.754 235.877C78.4157 235.915 84.3471 237.244 84.3471 244.481C84.3471 252.014 77.5378 253.11 72.5007 253.11H42.1852C38.7572 253.11 35.3526 254.905 32.2977 257.401L21.8971 266.192C19.1921 268.361 17.2332 270.156 17.2332 273.561V294.922C17.2332 298.326 19.1921 300.122 21.8971 302.268L32.2977 311.059C35.3526 313.578 38.7572 315.373 42.1852 315.373H72.5007C77.5378 315.373 84.3471 316.446 84.3471 324.001C84.3471 331.347 78.2374 332.606 72.5007 332.606L44.2623 332.606C34.8956 332.588 30.7782 332.206 22.9698 325.797L10.2373 315.187C1.98217 308.377 0 303.177 0 292.59V275.893C0 265.306 1.98217 260.106 10.2373 253.273L22.9698 242.686C30.7782 236.277 34.8956 235.895 44.2623 235.877L72.754 235.877ZM169.067 235.877C176.413 235.877 177.672 241.8 177.672 247.723L177.673 320.015C177.674 320.444 177.683 320.926 177.685 321.444L177.685 321.974C177.684 322.214 177.681 322.46 177.674 322.711L177.662 323.091C177.501 327.306 176.347 332.606 169.231 332.606C161.885 332.606 160.626 326.497 160.626 320.573V317.705L146.634 326.87C141.06 330.461 136.397 332.606 131.733 332.606H119C114.15 332.606 108.763 331.161 103.026 326.333C95.3073 319.687 95.4706 312.318 95.1208 302.99L93.3252 248.796C93.1386 242.523 94.0481 235.877 101.93 235.877C109.299 235.877 110.185 242.15 110.372 247.723L112.167 300.658C112.354 304.599 112.517 309.287 113.963 311.782C115.409 314.3 119.886 315.373 124.014 315.373H129.75C131.733 315.373 133.528 314.837 135.137 313.764L160.439 297.79L160.44 247.462C160.477 241.627 161.807 235.877 169.067 235.877ZM246.419 235.877C253.065 235.877 258.615 238.022 263.279 242.686C269.015 248.446 270.997 254.369 270.997 262.251C270.997 268.174 269.925 274.284 262.556 274.284C256.283 274.284 253.764 269.247 253.764 263.697C253.764 260.829 253.764 258.66 251.969 256.165C249.933 253.266 246.114 253.118 242.203 253.11L236.531 253.11C233.313 253.11 230.981 254.719 227.926 257.237L203.884 277.152V320.76C203.884 326.683 202.624 332.606 195.255 332.606C187.91 332.606 186.65 326.683 186.65 320.76L186.651 248.355C186.671 242.163 187.48 235.877 195.255 235.877C202.088 235.877 203.884 241.613 203.884 247.35V254.369L217.339 243.222C222.189 239.281 227.203 235.877 232.59 235.877H246.419ZM290.177 200.338C299.775 200.379 302.579 202.248 302.579 212.37V315.373H315.499C321.259 315.373 327.345 316.632 327.345 324.001C327.345 331.534 320.536 332.606 315.499 332.606L271.508 332.606C266.495 332.574 259.881 331.424 259.881 324.001C259.881 316.632 265.968 315.373 271.728 315.373H285.37V217.571H271.728C266.691 217.571 259.881 216.498 259.881 208.942C259.881 201.597 265.968 200.337 271.728 200.337L290.177 200.338Z" fill="#073551"/>
</svg>
