<svg width="512" height="512" viewBox="0 0 512 512" fill="none" xmlns="http://www.w3.org/2000/svg">
<path d="M256.001 270.705V320.191C339.875 320.191 405.181 239.162 377.744 151.271C365.754 112.862 335.234 82.342 296.825 70.352C208.934 42.9148 127.904 108.222 127.904 192.097H177.502C177.51 192.097 177.515 192.084 177.515 192.084C177.523 139.446 229.615 98.7508 284.956 118.832C305.458 126.272 321.812 142.623 329.257 163.124C349.341 218.432 308.707 270.504 256.114 270.579V221.254C256.114 221.254 256.11 221.251 256.105 221.251H206.659C206.655 221.251 206.651 221.258 206.651 221.258V270.705H256.001ZM206.642 308.711H168.65L168.641 308.702V270.705H206.651V308.702C206.651 308.702 206.646 308.711 206.642 308.711ZM168.667 270.705H136.819C136.806 270.705 136.795 270.697 136.795 270.697V238.862C136.795 238.862 136.806 238.839 136.819 238.839H168.644C168.657 238.839 168.667 238.849 168.667 238.849V270.705Z" fill="#0080FF"/>
<path d="M44.2601 370.388C37.8119 365.914 29.7876 363.646 20.4109 363.646H0V428.403H20.4109C29.7643 428.403 37.7915 426.009 44.2673 421.292C47.7914 418.791 50.5601 415.296 52.4979 410.907C54.4256 406.542 55.4032 401.393 55.4032 395.604C55.4032 389.882 54.4256 384.799 52.4965 380.495C50.5601 376.171 47.7885 372.77 44.2601 370.388ZM11.9217 374.592H18.3278C25.4558 374.592 31.323 375.993 35.7724 378.764C40.7113 381.741 43.2171 387.407 43.2171 395.604C43.2171 404.047 40.7055 409.967 35.7549 413.208H35.7506C31.49 416.026 25.6577 417.456 18.4164 417.456H11.9217V374.592ZM63.763 428.403H75.2402V382.793H63.763V428.403ZM69.6113 362.849C67.6503 362.849 65.9594 363.544 64.5983 364.907C63.2212 366.219 62.5225 367.882 62.5225 369.85C62.5225 371.811 63.2169 373.501 64.5896 374.872C65.9594 376.245 67.6503 376.941 69.6113 376.941C71.5724 376.941 73.2618 376.245 74.6345 374.872C76.0087 373.499 76.703 371.81 76.703 369.85C76.703 367.885 76.0043 366.222 74.6345 364.916C73.2618 363.544 71.5724 362.849 69.6113 362.849ZM116.919 386.603C113.459 383.525 109.595 381.73 105.416 381.73C99.0808 381.73 93.815 383.922 89.7665 388.239C85.6672 392.523 83.587 398.036 83.587 404.623C83.587 411.061 85.6338 416.555 89.6794 420.961C93.7569 425.223 99.0517 427.383 105.416 427.383C109.84 427.383 113.643 426.151 116.743 423.718V424.768C116.743 428.552 115.729 431.497 113.732 433.519C111.736 435.538 108.967 436.561 105.506 436.561C100.208 436.561 96.8873 434.479 92.8446 429.016L85.0295 436.524L85.2401 436.821C86.9281 439.19 89.5138 441.508 92.926 443.712C96.3396 445.905 100.631 447.021 105.681 447.021C112.496 447.021 118.007 444.921 122.066 440.779C126.148 436.616 128.218 431.041 128.218 424.215V382.793H116.919V386.603ZM113.909 413.541C111.903 415.819 109.328 416.923 106.036 416.923C102.746 416.923 100.185 415.819 98.2077 413.544C96.2409 411.279 95.2415 408.278 95.2415 404.623C95.2415 400.909 96.2409 397.87 98.2092 395.589C100.159 393.333 102.792 392.189 106.036 392.189C109.325 392.189 111.902 393.301 113.908 395.595C115.907 397.874 116.919 400.912 116.919 404.623C116.919 408.277 115.907 411.278 113.909 413.541ZM138.04 428.403H149.517V382.793H138.04V428.403ZM143.89 362.849C141.927 362.849 140.237 363.544 138.875 364.907C137.498 366.219 136.8 367.882 136.8 369.85C136.8 371.811 137.494 373.501 138.867 374.872C140.237 376.245 141.927 376.941 143.89 376.941C145.85 376.941 147.539 376.245 148.913 374.872C150.286 373.499 150.98 371.81 150.98 369.85C150.98 367.885 150.281 366.222 148.913 364.916C147.539 363.544 145.85 362.849 143.89 362.849ZM174.673 370.471H163.374V382.793H156.812V393.254H163.374V412.199C163.374 418.127 164.558 422.369 166.895 424.805C169.238 427.252 173.399 428.493 179.261 428.493C181.127 428.493 183.003 428.43 184.838 428.311L185.355 428.276V417.825L181.42 418.031C178.688 418.031 176.863 417.55 175.996 416.606C175.117 415.646 174.673 413.615 174.673 410.572V393.254H185.355V382.793H174.673V370.471ZM224.745 386.205H224.743C221.266 383.236 216.457 381.73 210.455 381.73C206.636 381.73 203.066 382.568 199.835 384.207C196.847 385.722 193.913 388.232 192.047 391.516L192.164 391.656L199.512 398.691C202.54 393.865 205.905 392.189 210.368 392.189C212.766 392.189 214.756 392.832 216.286 394.1C217.807 395.36 218.548 396.962 218.548 398.993V401.208C215.702 400.342 212.864 399.904 210.102 399.904C204.39 399.904 199.743 401.247 196.291 403.897C192.794 406.58 191.022 410.418 191.022 415.306C191.022 419.591 192.517 423.072 195.474 425.66C198.458 428.156 202.185 429.424 206.556 429.424C210.926 429.424 215.013 427.662 218.725 424.648V428.403H230.025V399.083C230.025 393.531 228.248 389.199 224.745 386.205ZM204.367 410.974C205.669 410.066 207.508 409.609 209.835 409.609C212.598 409.609 215.528 410.164 218.548 411.259V415.733C216.053 418.051 212.721 419.228 208.641 419.228C206.654 419.228 205.109 418.786 204.048 417.913C203.006 417.059 202.499 415.973 202.499 414.596C202.499 413.031 203.111 411.846 204.367 410.974ZM239.169 428.403H250.646V363.646H239.169V428.403ZM292.287 429.379C273.88 429.379 258.905 414.404 258.905 395.995C258.905 377.587 273.88 362.612 292.287 362.612C310.695 362.612 325.67 377.587 325.67 395.995C325.67 414.404 310.695 429.379 292.287 429.379ZM292.287 374.377C280.367 374.377 270.669 384.074 270.669 395.995C270.669 407.916 280.367 417.613 292.287 417.613C304.208 417.613 313.905 407.916 313.905 395.995C313.905 384.074 304.208 374.377 292.287 374.377ZM366.594 412.094C364.541 414.395 362.44 416.389 360.822 417.427V417.428C359.236 418.446 357.233 418.964 354.871 418.964C351.489 418.964 348.77 417.732 346.555 415.195C344.352 412.672 343.235 409.43 343.235 405.553C343.235 401.677 344.338 398.439 346.512 395.935C348.699 393.413 351.403 392.189 354.782 392.189C358.479 392.189 362.377 394.487 365.716 398.436L373.302 391.162C368.356 384.725 362.047 381.73 354.518 381.73C348.215 381.73 342.753 384.025 338.283 388.55C333.835 393.041 331.581 398.763 331.581 405.553C331.581 412.344 333.834 418.079 338.276 422.601C342.723 427.127 348.187 429.424 354.518 429.424C362.827 429.424 369.534 425.836 374.056 419.264L366.594 412.094ZM413.698 389.166C412.071 386.897 409.854 385.072 407.109 383.737C404.371 382.405 401.179 381.73 397.625 381.73C391.218 381.73 385.976 384.093 382.039 388.759C378.219 393.389 376.284 399.142 376.284 405.864C376.284 412.775 378.408 418.497 382.599 422.868C386.765 427.217 392.343 429.424 399.176 429.424C406.916 429.424 413.266 426.294 418.051 420.12L418.31 419.787L410.823 412.592C410.129 413.429 409.145 414.379 408.248 415.224C407.115 416.294 406.05 417.122 404.911 417.688C403.195 418.542 401.272 418.964 399.119 418.964C395.94 418.964 393.306 418.028 391.293 416.183C389.41 414.458 388.309 412.13 388.017 409.256H418.423L418.526 405.066C418.526 402.101 418.123 399.246 417.327 396.576C416.53 393.901 415.309 391.407 413.698 389.166ZM388.614 399.904C389.166 397.722 390.171 395.905 391.611 394.494C393.166 392.963 395.19 392.189 397.627 392.189C400.409 392.189 402.563 392.979 404.028 394.545C405.386 395.992 406.151 397.793 406.311 399.904H388.614ZM457.773 386.205H457.772C454.294 383.236 449.486 381.73 443.484 381.73C439.665 381.73 436.094 382.568 432.864 384.207C429.874 385.722 426.94 388.232 425.076 391.516L425.192 391.656L432.541 398.691C435.569 393.865 438.934 392.189 443.397 392.189C445.795 392.189 447.785 392.832 449.315 394.1C450.836 395.36 451.577 396.962 451.577 398.993V401.208C448.729 400.342 445.892 399.904 443.13 399.904C437.419 399.904 432.771 401.247 429.319 403.897C425.823 406.58 424.051 410.418 424.051 415.306C424.051 419.591 425.545 423.072 428.503 425.66C431.485 428.156 435.214 429.424 439.585 429.424C443.955 429.424 448.042 427.662 451.752 424.648V428.403H463.054V399.083C463.054 393.531 461.277 389.199 457.773 386.205ZM437.396 410.974C438.698 410.066 440.537 409.609 442.864 409.609C445.627 409.609 448.557 410.164 451.577 411.259V415.733C449.081 418.051 445.75 419.228 441.668 419.228C439.682 419.228 438.138 418.786 437.076 417.913C436.035 417.059 435.528 415.973 435.528 414.596C435.528 413.031 436.139 411.846 437.396 410.974ZM507.205 387.1C504.008 383.538 499.516 381.73 493.851 381.73C489.298 381.73 485.6 383.037 482.834 385.617V382.793H471.579V428.403H483.056V403.249C483.056 399.793 483.879 397.049 485.5 395.091C487.118 393.139 489.342 392.189 492.3 392.189C494.9 392.189 496.869 393.037 498.324 394.782C499.783 396.535 500.523 398.949 500.523 401.965V428.403H512V401.965C512 395.647 510.388 390.648 507.205 387.1Z" fill="#0080FF"/>
</svg>
