<svg width="512" height="512" viewBox="0 0 512 512" fill="none" xmlns="http://www.w3.org/2000/svg">
<path d="M70 413.269L73.0996 408.929L219.723 130.717L220.033 127.771L155.398 6.36427C149.983 -3.80576 134.738 -1.23442 132.961 10.1501L70 413.269Z" fill="#FFC24A"/>
<path d="M71.8282 409.96L74.173 405.388L219.261 130.091L154.787 8.18977C149.429 -1.87371 135.822 0.69168 134.063 11.957L71.8282 409.96Z" fill="#FFA712"/>
<path d="M267.153 219.605L315.278 170.317L267.139 78.4186C262.569 69.7197 249.809 69.6946 245.288 78.4186L219.569 127.469V131.647L267.153 219.605Z" fill="#F4BD62"/>
<path d="M266.294 217.551L313.081 169.634L266.294 80.5439C261.851 72.087 251.058 71.201 246.662 79.6823L220.807 129.493L220.034 132.039L266.294 217.551Z" fill="#FFA50E"/>
<path d="M70 413.269L71.405 411.857L76.5097 409.782L264.129 222.86L266.506 216.389L219.703 127.202L70 413.269Z" fill="#F6820C"/>
<path d="M273.162 507.538L442.961 412.84L394.472 114.211C392.955 104.868 381.493 101.174 374.805 107.873L70 413.269L238.826 507.53C249.495 513.487 262.489 513.49 273.162 507.538Z" fill="#FDE068"/>
<path d="M441.439 412.045L393.319 115.684C391.813 106.412 382.281 102.575 375.645 109.223L71.8824 412.689L238.854 506.017C249.442 511.929 262.338 511.932 272.929 506.025L441.439 412.045Z" fill="#FCCA3F"/>
<path d="M273.162 504.748C262.489 510.7 249.495 510.697 238.826 504.74L71.3598 411.833L70 413.269L238.826 507.53C249.495 513.487 262.489 513.49 273.162 507.538L442.961 412.84L442.545 410.281L273.162 504.748Z" fill="#EEAB37"/>
</svg>
