<svg width="512" height="512" viewBox="0 0 512 512" fill="none" xmlns="http://www.w3.org/2000/svg">
<g clip-path="url(#clip0_526_3034)">
<path d="M503.389 204.459L502.672 202.626L433.067 21.0093C431.653 17.4474 429.149 14.4232 425.915 12.3684C422.656 10.3116 418.84 9.31693 414.992 9.52171C411.144 9.7265 407.454 11.1206 404.432 13.5117C401.438 15.9122 399.28 19.1968 398.264 22.897L351.205 166.918H160.814L113.756 22.897C112.74 19.1968 110.581 15.9122 107.588 13.5117C104.579 11.1046 100.892 9.69994 97.0437 9.4949C93.1957 9.28986 89.38 10.2947 86.1322 12.3684C82.8837 14.4148 80.3699 17.4408 78.9536 21.0093L9.26903 202.864L8.55117 204.672C-1.45205 230.864 -2.68166 259.595 5.04724 286.546C12.7761 313.496 29.0458 337.21 51.4094 354.118L51.6754 354.304L52.2869 354.782L158.449 434.251L210.931 474L242.837 498.166C246.584 500.998 251.154 502.531 255.851 502.531C260.547 502.531 265.117 500.998 268.866 498.166L300.77 474L353.278 434.251L460.053 354.304L460.344 354.091C482.784 337.198 499.118 313.466 506.883 286.472C514.65 259.48 513.422 230.694 503.389 204.459Z" fill="#E24329"/>
<path d="M503.392 204.459L502.675 202.625C468.728 209.621 436.739 224.008 408.982 244.765L256.133 360.605C308.243 400.008 353.602 434.251 353.602 434.251L460.374 354.304L460.667 354.091C483.051 337.157 499.322 313.403 507.029 286.414C514.736 259.424 513.459 230.661 503.392 204.459Z" fill="#FC6D26"/>
<path d="M158.531 434.251L210.934 474L242.838 498.166C246.587 500.998 251.155 502.531 255.853 502.531C260.55 502.531 265.12 500.998 268.867 498.166L300.771 474L353.282 434.251C353.282 434.251 307.923 400.008 255.813 360.605L158.531 434.251Z" fill="#FCA326"/>
<path d="M102.962 244.872C75.2122 224.107 43.2197 209.728 9.26933 202.758L8.55147 204.566C-1.47745 230.771 -2.72058 259.525 5.00926 286.497C12.7391 313.47 29.0234 337.202 51.4098 354.118L51.6757 354.304L52.2872 354.782L158.449 434.251L256.13 360.605L102.962 244.872Z" fill="#FC6D26"/>
</g>
<defs>
<clipPath id="clip0_526_3034">
<rect width="512" height="512" fill="white"/>
</clipPath>
</defs>
</svg>
