<svg width="512" height="512" viewBox="0 0 512 512" fill="none" xmlns="http://www.w3.org/2000/svg">
<path fill-rule="evenodd" clip-rule="evenodd" d="M289.883 224.712C283.853 226.399 277.738 228.109 270.659 230.033C267.201 231.012 266.415 231.234 263.197 227.323C259.337 222.715 256.507 219.733 251.103 217.022C234.891 208.619 219.194 211.058 204.527 221.088C187.028 233.015 178.022 250.635 178.279 272.592C178.537 294.278 192.69 312.168 213.018 315.15C230.517 317.59 245.184 311.084 256.764 297.259C259.079 294.279 261.14 291.022 263.712 287.23H214.048C208.644 287.23 207.357 283.706 209.159 279.097C212.504 270.694 218.68 256.599 222.282 249.551C223.054 247.924 224.855 245.214 228.715 245.214H311.524C315.243 232.798 321.279 221.066 329.33 209.965C348.115 183.942 370.759 170.389 401.381 164.696C427.628 159.817 452.332 162.527 474.719 178.521C495.048 193.159 507.657 212.947 511.002 238.97C515.377 275.564 505.341 305.382 481.41 330.863C464.426 349.025 443.583 360.41 419.651 365.56C415.086 366.451 410.521 366.873 406.029 367.289C403.684 367.506 401.36 367.721 399.065 368C375.648 367.458 354.29 360.41 336.278 344.146C323.61 332.611 314.884 318.435 310.547 301.931C307.537 308.334 303.938 314.467 299.737 320.3C281.21 346.052 257.021 362.045 226.399 366.383C201.181 369.907 177.765 364.756 157.179 348.492C138.137 333.312 127.329 313.253 124.498 288.314C121.153 258.767 129.387 232.202 146.371 208.89C164.641 183.68 188.83 167.687 218.422 161.994C242.611 157.386 265.77 160.368 286.614 175.277C300.252 184.764 310.03 197.776 316.464 213.498C318.007 215.938 316.978 217.293 313.89 218.106C304.872 220.519 297.444 222.597 289.883 224.712ZM460.13 255.588C460.18 256.498 460.234 257.458 460.309 258.487C459.022 281.799 447.957 299.148 427.628 310.262C413.99 317.581 399.837 318.394 385.684 311.888C367.157 303.214 357.378 281.799 362.01 260.655C367.671 235.175 383.111 219.182 407.042 213.489C431.488 207.525 454.905 222.705 459.537 249.542C459.901 251.461 460.008 253.38 460.13 255.588Z" fill="#00ACD7"/>
<path d="M39.1137 221.631C38.599 222.445 38.8564 222.987 39.8857 222.987L116.522 223.258C117.294 223.258 118.58 222.445 119.095 221.631L123.469 214.583C123.984 213.77 123.727 212.957 122.697 212.957H47.3481C46.3188 212.957 45.0322 213.499 44.5175 214.312L39.1137 221.631Z" fill="#00ACD7"/>
<path d="M0.257326 246.569C-0.257326 247.382 1.19209e-07 247.924 1.0293 247.924L106.228 247.653C107.258 247.653 108.287 247.111 108.544 246.027L110.603 239.521C110.86 238.708 110.346 237.894 109.316 237.894H8.49176C7.46246 237.894 6.17583 238.437 5.66117 239.25L0.257326 246.569Z" fill="#00ACD7"/>
<path d="M62.53 271.237C62.0154 272.05 62.2727 272.864 63.302 272.864L102.883 273.135C103.655 273.135 104.684 272.322 104.684 271.237L105.199 264.731C105.199 263.647 104.684 262.834 103.655 262.834H68.7059C67.6766 262.834 66.6473 263.647 66.1326 264.46L62.53 271.237Z" fill="#00ACD7"/>
</svg>
