<svg width="512" height="512" viewBox="0 0 512 512" fill="none" xmlns="http://www.w3.org/2000/svg">
<path d="M440.72 0C465.912 0 486.387 20.2167 486.794 45.3179L486.8 46.08V465.92C486.8 491.112 466.577 511.587 441.482 511.994L440.72 512H72.08C46.8881 512 26.4132 491.777 26.0062 466.682L26 465.92V46.08C26 20.8817 46.223 0.413027 71.3181 0.00617236L72.08 0H440.72ZM440.72 25.6H72.08C60.9668 25.6 51.8877 34.5054 51.6067 45.5524L51.6 46.08V465.92C51.6 477.033 60.5054 486.112 71.5524 486.393L72.08 486.4H440.72C451.839 486.4 460.912 477.495 461.193 466.448L461.2 465.92V46.08C461.2 34.7904 452.016 25.6 440.72 25.6ZM141.2 332.8L198.8 384L141.2 435.2V332.8ZM192.4 76.8V222.15C217.962 213.83 253.693 204.8 288.4 204.8C320.048 204.8 338.992 217.242 349.309 227.68C371.105 249.729 371.624 277.756 371.595 281.494L371.594 281.6L371.6 435.2H320.4V282.304C320.15 270.355 314.39 256 288.4 256C236.863 256 179.116 281.661 177.401 282.429L177.366 282.445L141.2 298.829V76.8H192.4ZM371.6 76.8C368.144 105.882 356.355 133.76 333.2 160H282C302.122 133.6 314.755 105.818 320.4 76.8H371.6Z" fill="#430098"/>
</svg>
