<svg width="512" height="512" viewBox="0 0 512 512" fill="none" xmlns="http://www.w3.org/2000/svg">
<path d="M343.067 171.714C344.47 135.143 335.234 120.381 328.301 109.826C321.266 99.979 304.391 84.5064 283.655 83.8579C264.045 83.2469 259.328 94.0842 241.237 94.7396C238.271 61.7941 263.134 43.7171 263.134 43.7171C263.134 43.7171 256.334 34.1085 250.709 31.7636C244.238 37.515 228.72 54.0356 225.403 76.2154C221.907 43.5464 205.575 22.6534 169.366 8.0921C159.082 44.0686 193.038 77.6797 215.098 90.9542C203.404 87.0254 193.256 81.8338 179.627 84.5166C155.805 89.2066 136.168 103.607 124.976 135.211C113.787 166.816 128.928 203.686 132.219 214.216C135.513 224.757 159.874 269.523 178.968 276.107C198.059 282.698 198.065 279.729 208.271 275.783C218.477 271.834 233.946 264.587 256.669 272.823C279.374 281.05 282.337 283.022 296.489 273.806C310.654 264.59 329.083 235.953 333.36 227.72C337.64 219.493 339.944 215.21 341.268 210.933C342.914 198.406 341.804 204.492 343.067 171.714Z" fill="#D1D2D3"/>
<path d="M344.429 222.324V240.206C344.429 244.394 347.826 247.791 352.014 247.791H380.153C389.202 247.791 397.886 251.388 404.286 257.788C410.689 264.192 414.287 272.872 414.287 281.924L414.285 364.398C414.285 365.316 414.285 366.231 414.284 367.143L414.283 385.718C414.283 386.569 414.283 387.414 414.282 388.253L414.281 398.012C414.281 398.798 414.281 399.575 414.281 400.346L414.28 404.869C414.28 413.942 410.672 422.642 404.241 429.046C397.814 435.449 389.1 439.03 380.027 438.999C370.517 439.023 360.516 439.006 352.174 438.89C350.133 438.849 348.164 439.627 346.706 441.057C345.252 442.484 344.429 444.436 344.429 446.471L344.429 455.498C344.429 455.864 344.429 456.231 344.428 456.6L344.427 461.089C344.427 461.466 344.427 461.843 344.426 462.219L344.425 464.47C344.421 470.82 344.412 476.834 344.395 480.461C344.395 482.707 343.395 484.836 341.668 486.27C332.974 492.837 302.602 507.392 234.67 507.392C168.141 507.392 136.458 496.524 126.573 490.8C124.392 489.41 123.071 487.001 123.064 484.42C123.034 469.672 122.922 417.16 122.806 362.972L122.791 355.576C122.656 292.677 122.521 229.73 122.506 222.93L122.505 222.324H344.429ZM378.068 278.177H353.909C351.564 278.177 349.306 279.051 347.572 280.611L347.208 280.956C345.549 282.619 344.567 284.826 344.443 287.161L344.43 287.663V397.999C344.43 400.344 345.301 402.602 346.863 404.339L347.208 404.703C348.865 406.362 351.078 407.341 353.408 407.464L353.909 407.478H378.068C380.413 407.478 382.672 406.609 384.408 405.048L384.772 404.703C386.429 403.043 387.41 400.83 387.534 398.5L387.547 397.999V287.663C387.547 285.312 386.676 283.059 385.117 281.32L384.772 280.956C383.112 279.299 380.9 278.314 378.569 278.191L378.068 278.177Z" fill="#FEFEFE"/>
<path d="M144.384 220.125V455.239C144.384 457.953 145.831 460.458 148.183 461.813C157.778 466.387 185.62 477.306 234.434 477.306C283.569 477.306 310.582 464.039 319.631 458.571C321.792 457.181 323.092 454.785 323.092 452.218C323.113 421.041 323.113 220.125 323.113 220.125H144.384Z" fill="#FAAF41"/>
<path d="M170.655 249.427C176.257 249.427 180.837 253.806 181.158 259.329L181.175 259.947V441.642C181.175 447.452 176.465 452.162 170.655 452.162C165.051 452.162 160.473 447.783 160.153 442.263L160.135 441.642V259.947C160.135 254.137 164.846 249.427 170.655 249.427Z" fill="#FFDA95"/>
<path d="M271.637 268.372C271.637 264.58 269.405 260.05 265.739 257.777C259.772 254.169 255.113 248.633 252.577 242.038C204.046 243.67 159.755 235.15 137.438 229.132C131.711 227.508 125.908 226.159 120.047 225.094C106.694 222.442 96.5432 210.714 96.5432 196.614C96.5432 181.093 108.859 168.481 124.242 167.928C127.209 151.513 141.538 139.051 158.809 139.051C178.231 139.051 193.977 154.797 193.977 174.219C193.977 178.304 193.24 182.216 191.96 185.868L192.062 185.885C196.4 172.321 209.098 162.491 224.103 162.491C239.009 162.491 251.642 172.205 256.052 185.643C255.922 184.431 255.857 183.199 255.857 181.95C255.857 161.75 272.231 145.379 292.428 145.379C308.777 145.379 322.615 156.111 327.298 170.908L330.483 170.075C334.654 167.727 339.45 166.368 344.576 166.368C360.448 166.368 373.313 179.236 373.307 195.102C373.307 209.639 362.517 221.65 348.509 223.569C345.334 224.016 342.225 224.825 339.231 225.979C330.903 229.115 322.39 231.716 313.792 233.863C313.362 238.103 312.099 242.096 310.17 245.68C306.682 252.227 305.118 259.627 305.658 267.024C305.654 267.471 305.671 269.819 305.671 270.27C305.671 279.667 298.053 285.384 288.646 285.384C279.256 285.384 271.637 277.772 271.637 268.372Z" fill="#FEFEFE"/>
<path d="M264.803 226.866L265.005 227.481L264.94 226.866H264.803Z" fill="#010202"/>
<path d="M166.383 2L171.06 3.87733C201.114 15.9639 218.611 32.563 226.199 57.0366C230.998 46.4006 238.285 36.9423 246.754 29.2145L249.826 26.4736L252.461 27.5693C253.597 28.0471 254.731 28.6991 255.878 29.5149C257.659 30.7812 259.465 32.4265 261.295 34.3686C262.684 35.8398 264.008 37.4031 265.233 38.963L265.909 39.8334L266.664 40.8471L269.432 44.7554L265.804 47.3939L265.309 47.7762L264.626 48.336L263.786 49.0767L262.8 49.9881C260.404 52.2613 257.997 54.9749 255.751 58.105C249.467 66.8602 245.692 76.9841 245.535 88.4734L245.532 89.8114L246.515 89.651C249.897 89.0332 253.079 87.8487 257.734 85.7291L260.393 84.5105C269.388 80.4384 274.774 79.0389 283.795 79.3188C302.954 79.9196 321.386 92.3339 332.097 107.335C332.336 107.701 332.579 108.066 332.811 108.435L334.19 110.619L335.504 112.79C343.689 126.692 347.631 140.189 347.775 161.99C364.654 163.597 377.856 177.807 377.85 195.103C377.85 211.787 365.504 225.826 349.143 228.065C349.085 228.075 349.031 228.089 348.969 228.099V240.206C348.969 241.886 350.335 243.251 352.014 243.251H380.154C390.411 243.251 400.248 247.323 407.501 254.576C414.755 261.833 418.827 271.67 418.827 281.924L418.823 404.869C418.823 415.15 414.731 425.008 407.447 432.261C400.163 439.518 390.295 443.576 380.041 443.539C378.594 443.542 377.174 443.545 375.778 443.549L367.504 443.545L357.448 443.491L352.079 443.429C351.26 443.412 350.471 443.726 349.884 444.3C349.3 444.873 348.969 445.655 348.969 446.471L348.959 471.337L348.935 480.461C348.935 484.058 347.334 487.465 344.402 489.892C340.269 493.015 334.78 495.971 327.974 498.647L325.656 499.524C322.106 500.831 318.229 502.064 314.031 503.204L311.18 503.951L308.238 504.671C305.248 505.378 302.115 506.044 298.841 506.661L295.52 507.266L292.107 507.836C289.219 508.296 286.239 508.726 283.164 509.116L279.423 509.566L275.593 509.983L271.671 510.358L267.657 510.699L263.551 511L259.352 511.259C258.646 511.3 257.936 511.338 257.222 511.375L252.891 511.573L248.471 511.73C246.979 511.771 245.477 511.812 243.958 511.843L239.357 511.908C237.811 511.925 236.247 511.932 234.671 511.932H232.271C230.68 511.921 229.1 511.908 227.537 511.891L222.891 511.815L218.334 511.706C216.829 511.665 215.341 511.614 213.866 511.563L209.49 511.382C208.767 511.348 208.05 511.317 207.333 511.28L203.09 511.047L198.94 510.788L194.881 510.491C194.209 510.443 193.547 510.389 192.884 510.334L188.963 509.996C188.317 509.935 187.676 509.877 187.037 509.812L183.255 509.43L179.569 509.017C178.961 508.945 178.357 508.873 177.76 508.798L174.214 508.341L170.763 507.863L167.411 507.354C165.759 507.091 164.141 506.825 162.56 506.545L159.451 505.975C158.939 505.88 158.434 505.781 157.932 505.682L154.966 505.078L152.102 504.453L149.337 503.801L146.671 503.135C144.057 502.456 141.592 501.746 139.285 501.012L137.025 500.268C135.919 499.893 134.858 499.51 133.83 499.118L131.83 498.336C128.908 497.145 126.342 495.906 124.133 494.629C120.648 492.407 118.535 488.56 118.525 484.427L117.979 229.26C102.929 225.703 92 212.289 92 196.615C92 181.333 102.342 168.448 116.47 164.58C116.296 159.932 116.402 155.344 116.883 150.818C117.525 144.831 118.778 139.114 120.696 133.693C131.697 102.622 151.276 85.4662 178.75 80.0595C183.655 79.097 188.143 78.9877 192.861 79.6226C189.297 76.2878 185.877 72.7209 182.764 69.0208C166.257 49.3839 159 27.8287 164.998 6.84352L166.383 2ZM339.887 230.574L337.705 231.376C337.245 231.543 336.753 231.683 336.285 231.847C332.026 233.345 327.653 234.707 323.206 235.981C320.454 236.769 320.454 236.769 317.833 237.513L317.628 238.551C317.007 241.333 316.065 244.016 314.822 246.559L313.617 248.91C313.396 249.364 313.245 249.846 313.047 250.31C310.805 255.464 309.777 261.11 310.197 267.021L310.201 267.687L310.211 270.268C310.211 281.999 300.838 289.928 288.646 289.928C282.457 289.928 276.89 287.303 272.961 283.122C270.094 280.071 268.114 276.196 267.404 271.879C267.217 270.735 267.094 269.568 267.094 268.373C267.094 265.939 265.5 262.977 263.387 261.663C257.564 258.14 252.853 253.03 249.798 246.965L249.652 246.664L246.665 246.729C212.218 247.316 177.156 243.101 148.375 236.516C145.03 235.752 141.746 234.96 138.582 234.134L136.199 233.503C136.134 233.482 136.063 233.468 135.994 233.448C133.042 232.618 130.062 231.868 127.065 231.181L127.608 484.41C127.608 485.444 128.14 486.413 128.85 486.867C130.168 487.632 131.646 488.383 133.288 489.12L134.981 489.847C136.728 490.571 138.633 491.277 140.698 491.97L142.811 492.65C143.893 492.984 145.016 493.315 146.176 493.643L148.549 494.285L151.023 494.909L153.597 495.52L156.276 496.107C156.727 496.206 157.188 496.302 157.652 496.397L160.478 496.957C161.434 497.142 162.41 497.326 163.404 497.503L166.428 498.022C167.452 498.193 168.493 498.36 169.551 498.521L172.77 498.995L176.087 499.449C176.647 499.521 177.21 499.596 177.78 499.664L181.242 500.084L184.798 500.473L188.447 500.831C189.065 500.893 189.686 500.947 190.307 501.005L194.1 501.33L197.984 501.623L201.961 501.886L206.029 502.118L210.19 502.323C210.89 502.354 211.596 502.381 212.303 502.412L216.6 502.569C217.321 502.593 218.048 502.613 218.781 502.634L223.212 502.739C223.956 502.753 224.704 502.767 225.458 502.78L230.022 502.832C231.554 502.842 233.104 502.849 234.671 502.849L236.947 502.845C240.729 502.825 244.416 502.763 248.01 502.654L252.276 502.507C252.98 502.483 253.679 502.453 254.376 502.419L258.506 502.214L262.547 501.968C263.213 501.924 263.878 501.879 264.534 501.831L268.442 501.528C269.08 501.476 269.722 501.422 270.357 501.367L274.125 501.012C274.743 500.947 275.361 500.886 275.975 500.821L279.6 500.418C280.198 500.347 280.791 500.275 281.382 500.203L284.87 499.749L288.267 499.261L291.571 498.749C292.656 498.572 293.728 498.387 294.779 498.207L297.896 497.633C298.916 497.435 299.927 497.237 300.916 497.032L303.845 496.404L306.675 495.756C308.532 495.315 310.32 494.855 312.051 494.387L314.594 493.667C315.01 493.544 315.42 493.418 315.829 493.295L318.229 492.547L320.529 491.776C328.421 489.049 334.521 485.983 338.767 482.771C339.453 482.201 339.852 481.355 339.852 480.44L339.887 446.471C339.887 443.211 341.201 440.088 343.529 437.811C345.856 435.527 349.004 434.282 352.236 434.35L357.554 434.408L365.439 434.456L375.791 434.466L380.044 434.456C387.909 434.483 395.462 431.38 401.036 425.83C406.607 420.277 409.74 412.737 409.74 404.869L409.744 281.924C409.744 274.077 406.627 266.55 401.077 261C395.527 255.45 388.001 252.334 380.154 252.334H352.014C345.317 252.334 339.887 246.903 339.887 240.206V230.574ZM378.068 273.638C381.785 273.638 385.352 275.115 387.984 277.747C390.615 280.375 392.09 283.942 392.09 287.663V397.999C392.09 401.716 390.615 405.283 387.98 407.915C385.352 410.543 381.785 412.017 378.068 412.017H353.912C350.195 412.017 346.628 410.543 343.993 407.911C341.364 405.283 339.887 401.716 339.887 397.999V287.663C339.887 283.942 341.364 280.375 343.996 277.744C346.628 275.115 350.195 273.638 353.912 273.638H378.068ZM378.068 282.724H353.912C352.601 282.724 351.345 283.243 350.42 284.164C349.495 285.093 348.969 286.352 348.969 287.663V397.999C348.969 399.31 349.495 400.566 350.417 401.487C351.345 402.416 352.601 402.938 353.912 402.938H378.068C379.379 402.938 380.635 402.416 381.556 401.491C382.485 400.566 383.007 399.31 383.007 397.999V287.663C383.007 286.352 382.485 285.093 381.56 284.168C380.635 283.243 379.379 282.724 378.068 282.724ZM158.809 143.592C143.954 143.592 131.328 154.265 128.71 168.738L128.062 172.336L126.167 172.407L124.406 172.469C121.877 172.557 119.453 173.046 117.18 173.851C107.787 177.183 101.083 186.129 101.083 196.615C101.083 207.305 108.09 216.579 117.958 219.839C118.904 220.15 119.866 220.426 120.863 220.624C124.137 221.221 127.386 221.921 130.615 222.686C133.305 223.321 135.977 224 138.623 224.747C139.759 225.054 140.975 225.338 142.145 225.638C143.763 226.048 145.35 226.468 147.009 226.867C177.286 234.127 215.508 238.742 252.423 237.5L255.652 237.39L256.813 240.408C258.977 246.036 262.964 250.788 268.135 253.918C273.002 256.938 276.177 262.847 276.177 268.373L276.194 269.035C276.31 271.251 277.044 273.292 278.17 275.056C280.389 278.521 284.229 280.845 288.646 280.845C296.124 280.845 301.128 276.613 301.128 270.268L301.114 267.663L301.128 267.356C301.046 266.274 301.012 265.195 301.012 264.12C301.022 256.959 302.78 249.886 306.17 243.524L306.705 242.473C308.078 239.64 308.951 236.581 309.269 233.407L309.59 230.229L312.689 229.458C315.853 228.666 318.918 227.765 321.984 226.867C324.673 226.079 327.332 225.263 329.961 224.409C332.551 223.566 335.101 222.682 337.6 221.74L339.026 221.215C340.102 220.842 341.197 220.549 342.293 220.255C344.133 219.76 345.993 219.337 347.891 219.068L348.696 218.945C348.792 218.928 348.881 218.904 348.969 218.887C360.326 216.804 368.767 206.858 368.767 195.099C368.77 182.78 359.547 172.629 347.635 171.124C346.631 170.998 345.614 170.912 344.576 170.912C342.511 170.912 340.484 171.178 338.525 171.687C336.5 172.213 334.551 172.998 332.715 174.032L332.2 174.322L324.267 176.387L322.967 172.278C318.789 159.075 306.494 149.92 292.428 149.92C274.74 149.92 260.4 164.26 260.4 181.951C260.4 183.036 260.458 184.112 260.567 185.17L263.988 217.781L264.94 226.867H264.803L261.82 217.781L251.734 187.057C247.846 175.206 236.759 167.035 224.103 167.035C211.354 167.035 200.213 175.312 196.39 187.269L195.195 191L185.88 189.474L187.672 184.364C188.833 181.057 189.434 177.654 189.434 174.216C189.434 157.303 175.722 143.592 158.809 143.592ZM251.28 37.4202L250.167 38.509C240.019 48.6398 230.513 65.6041 229.936 76.0523C229.356 86.5005 231.059 99.4711 231.059 99.4711L224.652 98.2458C221.888 97.7167 219.399 97.0921 216.522 96.1978L214.535 95.5629C214.191 95.4502 213.842 95.3308 213.484 95.2113L213.112 95.0816L211.238 94.4331L203.756 91.757L201.701 91.0607C193.349 88.33 187.427 87.6132 180.504 88.9751C156.205 93.7572 139.2 108.656 129.26 136.724C127.584 141.455 126.485 146.48 125.915 151.784C125.905 151.873 125.905 151.965 125.894 152.057C132.885 141.674 144.599 134.861 157.782 134.523L158.809 134.509C178.378 134.509 194.639 148.664 197.916 167.294L198.066 168.212L199.046 167.325C205.568 161.655 213.986 158.204 223.079 157.965L224.103 157.952C235.176 157.952 245.334 162.717 252.386 170.503L252.799 170.97L253.058 170.076C258.059 153.473 273.275 141.295 291.397 140.848L292.428 140.837C308.713 140.837 323.148 150.391 329.756 164.707L329.981 165.215L330.418 165C333.043 163.761 335.831 162.908 338.695 162.393C338.61 141.605 334.951 129.437 327.158 116.514L325.912 114.5L324.605 112.466C315.495 99.7135 299.435 88.8966 283.512 88.3983C275.75 88.1559 271.504 89.3677 262.837 93.3818L261.393 94.0439C253.454 97.6484 248.832 99.0069 241.402 99.2766L237.101 99.4336L236.715 95.1465C235.247 78.8751 239.845 64.6859 248.375 52.8075C251.263 48.7831 254.161 45.5746 256.7 43.1989L256.85 43.0522L255.857 41.8848L254.686 40.598C253.717 39.5706 252.778 38.666 251.894 37.9185L251.28 37.4202ZM172.602 14.3836L172.486 15.1243C170.155 31.0236 176.572 47.5407 189.72 63.1772C197.745 72.7243 208.067 81.3532 216.894 86.7701C218.266 87.6132 219.607 88.3915 220.894 89.0707L221.635 89.4564L221.632 88.7396C221.574 84.077 221.3 79.6602 220.806 75.4652C217.341 46.1754 202.903 27.8867 173.077 14.5952L172.602 14.3836Z" fill="#010202"/>
</svg>
