<svg width="512" height="512" viewBox="0 0 512 512" fill="none" xmlns="http://www.w3.org/2000/svg">
<path d="M470.676 111.246C470.227 49.359 418.602 0 356.715 0H155.063C93.6452 0 42.2055 48.5855 41.0181 110.026C40.4775 140.139 52.0575 169.206 73.1565 190.699C94.2555 212.191 123.104 224.306 153.222 224.321H243.313C246.332 224.411 248.897 226.559 249.516 229.516C250.135 232.473 248.647 235.469 245.916 236.762L107.807 297.298C66.9542 315.407 40.7256 356.014 41.0181 400.7C41.4865 462.597 93.0787 512 154.987 512H202.244C264.588 512 316.496 461.998 316.398 399.654C316.27 353.98 288.496 312.932 246.145 295.827C243.742 294.836 242.166 292.503 242.142 289.904C242.118 287.305 243.652 284.944 246.036 283.909L403.993 214.648C444.805 196.508 470.988 155.906 470.676 111.246Z" fill="black"/>
</svg>
