<svg width="512" height="512" viewBox="0 0 512 512" fill="none" xmlns="http://www.w3.org/2000/svg">
<path fill-rule="evenodd" clip-rule="evenodd" d="M495.046 90.0087C487.331 90.2552 489.771 92.4781 473.101 96.5805C456.268 100.723 435.705 99.4528 417.578 107.055C363.465 129.749 352.608 207.314 303.414 235.099C266.642 255.87 229.544 257.526 196.19 267.978C174.27 274.851 150.292 288.947 130.432 306.062C115.017 319.351 114.615 331.035 98.5081 347.702C81.2801 365.53 30.0367 348.003 6.8125 375.289C14.2939 382.853 17.5738 384.972 32.3172 383.01C29.2648 388.795 11.2713 393.671 14.7936 402.182C18.4997 411.137 62.0004 417.208 101.544 393.333C119.961 382.214 134.629 366.188 163.311 362.363C200.426 357.416 243.183 365.536 286.15 371.732C279.779 390.728 266.988 403.361 256.742 418.491C253.569 421.908 263.115 422.291 274.005 420.226C293.595 415.382 307.714 411.481 322.499 402.876C340.662 392.302 343.415 365.192 365.701 359.327C378.118 378.412 411.89 382.92 432.846 367.655C414.457 362.45 409.375 323.309 415.582 306.062C421.462 289.736 427.272 263.62 433.193 242.04C439.55 218.863 441.895 189.65 449.589 177.844C461.164 160.082 473.954 153.982 485.058 143.966C496.162 133.95 506.326 124.2 505.992 101.281C505.885 93.8992 502.068 89.7843 495.046 90.0087V90.0087V90.0087V90.0087Z" fill="#002B64"/>
<path d="M90.6845 390.741C68.071 400.548 50.9457 404.582 22.7857 400.548C21.2097 398.426 25.0268 396.031 29.6652 393.121C35.5503 389.429 42.7574 384.907 41.9486 379.059C37.9855 378.621 34.6202 378.686 31.4896 378.746C25.9145 378.853 21.0841 378.946 14.949 376.158C16.0066 374.21 17.5612 372.586 19.5183 371.234C28.0811 365.307 44.3293 364.478 60.2786 363.664C77.0342 362.81 93.4598 361.972 100.298 355.258C107.696 347.999 112.81 340.435 117.828 333.012C118.399 332.168 118.968 331.326 119.539 330.487C124.966 322.506 130.576 314.747 139.123 307.754C142.28 305.173 145.711 302.621 149.353 300.131C163.919 290.163 181.938 281.121 199.671 274.889C211.007 270.904 222.413 268.635 233.988 266.333C247.081 263.728 260.389 261.081 274.055 255.859C289.962 249.78 307.259 242.271 321.358 231.763C324.706 229.265 327.874 226.603 330.803 223.749C344.994 209.915 355.175 192.355 365.16 175.132C383.503 143.495 401.185 112.996 441.857 108.819C447.206 108.269 451.872 108.232 456.141 108.198C457.934 108.184 459.657 108.17 461.331 108.119C467.855 107.925 473.629 107.167 479.908 103.627C481.763 109.948 484.664 112.849 497.206 114.01C495.374 129.911 484.767 138.608 472.874 146.953C471.644 147.815 470.401 148.674 469.152 149.536C459.771 156.014 450.078 162.708 443.576 172.825C439.35 179.401 435.988 194.894 431.794 214.225C428.496 229.423 424.684 246.992 419.533 264.465C409.417 298.765 394.14 332.68 367.463 347.54C366.332 344.694 366.177 340.872 366.022 337.05C365.796 331.45 365.569 325.851 362.274 323.322C358.688 333.552 354.632 343.312 349.882 352.384C334.228 382.304 311.051 404.707 272.32 411.547C290.697 386.679 308.27 360.998 308.65 318.137C301.958 319.584 298.802 328.462 295.474 337.824C292.369 346.557 289.115 355.711 282.702 359.652C274.183 360.579 265.552 360.574 256.866 360.052C246.623 359.438 236.303 358.116 226.006 356.798C200.444 353.524 175.018 350.268 151.23 357.9C138.164 362.094 126.468 369.564 115.227 376.742C106.92 382.048 98.8616 387.194 90.6845 390.741Z" fill="white"/>
<path d="M417.198 366.795C411.049 361.009 404.084 337.205 403.334 325.207C401.814 326.816 399.991 328.577 398.033 330.469C390.612 337.64 381.252 346.686 379.088 356.39C384.41 364.885 405.155 369.723 417.198 366.795Z" fill="white"/>
<path d="M476.477 109.738C472.702 113.727 460.373 126.949 456.487 138.964C455.798 141.018 453.791 141.934 454.799 138.742C458.719 127.038 469.515 114.432 474.978 108.836C477.39 106.595 477.951 108.025 476.477 109.738Z" fill="#002B64"/>
<path d="M462.733 139.794C464.475 129.766 471.527 121.087 475.864 115.749C476.909 114.463 477.797 113.37 478.414 112.5C479.633 110.598 478.875 109.263 476.804 111.82C476.023 112.887 475.118 114.047 474.144 115.295C469.358 121.431 462.89 129.724 461.031 139.811C460.484 143.111 462.344 141.923 462.733 139.794Z" fill="#002B64"/>
<path d="M479.081 117.395C479.651 116.499 480.163 115.693 480.585 114.976C481.646 112.98 480.777 111.714 478.928 114.432C478.571 115.017 478.205 115.61 477.832 116.212C473.945 122.495 469.378 129.876 468.274 141.082C468.007 144.416 469.762 143.081 469.967 140.924C470.909 130.248 475.89 122.414 479.081 117.395Z" fill="#002B64"/>
<path d="M481.745 119.256C479.315 123.923 476.074 130.146 476.074 140.829C476.055 142.997 474.428 144.483 474.4 141.14C474.512 129.88 477.241 124.451 480.354 118.261C480.653 117.666 480.956 117.065 481.26 116.45C482.873 113.577 483.844 114.762 482.967 116.844C482.603 117.608 482.187 118.407 481.745 119.256Z" fill="#002B64"/>
<path d="M420.976 134.794C429.867 142.514 448.525 136.318 445.191 120.959C431.375 119.815 423.372 124.504 420.976 134.794Z" fill="#002B64"/>
</svg>
