<svg width="512" height="512" viewBox="0 0 512 512" fill="none" xmlns="http://www.w3.org/2000/svg">
<path d="M33.6156 384.097C35.94 388.229 39.2974 391.328 43.4295 393.652L242.29 508.32C250.554 513.227 260.626 513.227 268.632 508.32L467.492 393.652C475.756 389.004 480.663 380.223 480.663 370.667V141.333C480.663 131.777 475.756 122.996 467.492 118.348L268.632 3.6802C260.368 -1.22673 250.296 -1.22673 242.29 3.6802L43.4295 118.348C34.9069 122.996 30 131.777 30 141.333V370.926C30 375.574 31.033 379.965 33.6156 384.097Z" fill="#009639"/>
<path d="M191.669 343.55C191.669 357.754 180.306 369.118 166.102 369.118C151.897 369.118 140.534 357.754 140.534 343.55V168.192C140.534 154.504 152.672 143.399 169.459 143.399C181.597 143.399 195.802 148.306 204.324 158.894L212.072 168.192L318.992 296.03V168.708C318.992 154.504 330.355 143.14 344.559 143.14C358.764 143.14 370.127 154.504 370.127 168.708V344.066C370.127 357.754 357.989 368.859 341.202 368.859C329.064 368.859 314.859 363.952 306.337 353.364L191.669 216.486V343.55Z" fill="white"/>
</svg>
