<svg width="512" height="512" viewBox="0 0 512 512" fill="none" xmlns="http://www.w3.org/2000/svg">
<path fill-rule="evenodd" clip-rule="evenodd" d="M285.955 341.797C329.047 325.249 350.568 276.892 334.025 233.787C317.482 190.683 269.139 169.155 226.049 185.702C182.958 202.25 161.437 250.608 177.979 293.712C186.467 315.83 203.939 333.306 226.049 341.797L169.753 488.533C45.648 440.885 -16.3433 301.619 31.2909 177.475C78.9252 53.3308 218.146 -8.68008 342.251 38.9692C466.356 86.6184 528.348 225.883 480.713 350.028C456.268 413.739 405.942 464.08 342.251 488.533L285.955 341.797" fill="#3DA639"/>
<path fill-rule="evenodd" clip-rule="evenodd" d="M342.251 497.142C341.056 497.142 339.862 496.893 338.75 496.397C336.664 495.469 335.034 493.749 334.217 491.619L277.921 344.881C276.218 340.443 278.434 335.464 282.871 333.76C301.565 326.581 316.347 312.549 324.491 294.249C332.635 275.95 333.168 255.573 325.991 236.872C311.176 198.268 267.726 178.918 229.133 193.739C190.542 208.56 171.198 252.023 186.014 290.627C193.615 310.435 209.332 326.156 229.133 333.76C233.571 335.464 235.787 340.443 234.083 344.881L177.787 491.619C176.97 493.749 175.339 495.469 173.254 496.397C171.17 497.327 168.801 497.389 166.67 496.57C104.501 472.701 55.3451 426.044 28.2582 365.192C1.17124 304.34 -0.605007 236.579 23.2564 174.391C47.1179 112.202 93.7616 63.031 154.594 35.9355C215.426 8.84007 283.166 7.06326 345.335 30.9322C407.503 54.8012 456.659 101.459 483.746 162.311C510.833 223.162 512.61 290.924 488.748 353.112C463.468 418.995 411.196 471.284 345.335 496.57C344.341 496.953 343.295 497.142 342.251 497.142V497.142V497.142ZM255.917 31.4634C223.822 31.4634 191.795 38.2125 161.595 51.6642C104.962 76.889 61.5396 122.665 39.3253 180.56C17.111 238.455 18.765 301.537 43.9819 358.189C68.0292 412.211 110.756 454.215 164.858 477.267L215.076 346.371C194.464 336.146 178.259 318.46 169.945 296.797C151.728 249.331 175.513 195.889 222.965 177.666C270.419 159.442 323.842 183.236 342.059 230.702C350.884 253.696 350.229 278.751 340.214 301.251C331.377 321.111 316.181 336.882 296.932 346.381L347.145 477.262C404.694 452.67 450.175 405.593 472.679 346.942C494.893 289.048 493.24 225.965 468.022 169.315C442.806 112.664 397.044 69.2266 339.168 47.0061C312.154 36.6345 284.009 31.4634 255.917 31.4634V31.4634V31.4634Z" fill="#1D531D"/>
<path fill-rule="evenodd" clip-rule="evenodd" d="M470.338 462.388C467.219 465.578 465.66 469.362 465.66 473.739C465.66 478.276 467.246 482.131 470.418 485.303C473.573 488.475 477.383 490.062 481.849 490.062C486.297 490.062 490.099 488.467 493.253 485.277C496.408 482.069 497.985 478.223 497.985 473.739C497.985 469.38 496.417 465.596 493.28 462.388C490.108 459.127 486.297 457.497 481.849 457.497C477.348 457.497 473.511 459.127 470.338 462.388V462.388V462.388ZM495.566 487.802C491.756 491.488 487.183 493.331 481.849 493.331C476.337 493.331 471.694 491.444 467.919 487.669C464.144 483.894 462.257 479.251 462.257 473.739C462.257 468.015 464.295 463.257 468.371 459.464C472.199 455.92 476.692 454.147 481.849 454.147C487.254 454.147 491.871 456.061 495.699 459.889C499.527 463.717 501.441 468.334 501.441 473.739C501.441 479.304 499.483 483.992 495.566 487.802V487.802V487.802ZM483.63 467.2C482.85 466.899 481.752 466.748 480.334 466.748H478.951V473.048H481.158C482.487 473.048 483.524 472.782 484.268 472.251C485.012 471.719 485.385 470.859 485.385 469.672C485.385 468.485 484.8 467.661 483.63 467.2V467.2V467.2ZM473.263 484.639V462.92C474.61 462.92 476.625 462.924 479.31 462.933C481.995 462.942 483.488 462.955 483.79 462.973C485.509 463.097 486.935 463.469 488.07 464.09C490.001 465.153 490.967 466.881 490.967 469.273C490.967 471.099 490.458 472.419 489.439 473.234C488.42 474.049 487.166 474.537 485.677 474.696C487.042 474.98 488.07 475.396 488.761 475.946C490.037 476.974 490.675 478.595 490.675 480.81V482.751C490.675 482.964 490.688 483.176 490.715 483.389C490.741 483.602 490.79 483.814 490.861 484.027L491.047 484.639H485.624C485.447 483.947 485.331 482.946 485.278 481.635C485.225 480.323 485.11 479.437 484.933 478.976C484.649 478.214 484.118 477.683 483.338 477.381C482.912 477.204 482.266 477.089 481.397 477.036L480.148 476.956H478.951V484.639H473.263V484.639Z" fill="#1D531D"/>
</svg>
