<svg width="512" height="512" viewBox="0 0 512 512" fill="none" xmlns="http://www.w3.org/2000/svg">
<g clip-path="url(#clip0_526_3151)">
<g clip-path="url(#clip1_526_3151)">
<path fill-rule="evenodd" clip-rule="evenodd" d="M496.97 305.404C494.063 296.601 486.447 290.468 476.598 288.996C471.955 288.303 466.636 288.598 460.343 289.896C449.374 292.159 441.236 293.02 435.296 293.188C457.714 255.337 475.943 212.174 486.437 171.543C503.406 105.845 494.338 75.9154 483.742 62.3766C455.699 26.5449 414.785 7.29425 365.423 6.70415C339.094 6.38278 315.977 11.5817 303.919 15.3194C292.692 13.3397 280.619 12.2334 267.951 12.0285C244.209 11.6501 223.23 16.8255 205.304 27.4631C195.377 24.1083 179.451 19.3774 161.057 16.3574C117.795 9.25492 82.928 14.7898 57.4248 32.8065C26.5423 54.6213 12.2253 92.5223 14.8735 145.458C15.7133 162.265 25.1157 213.401 39.9187 261.898C48.4265 289.772 57.4987 312.92 66.8832 330.704C80.1914 355.922 94.4312 370.773 110.418 376.105C119.379 379.091 135.659 381.181 152.783 366.922C154.953 369.549 157.848 372.161 161.692 374.587C166.572 377.665 172.54 380.18 178.499 381.67C199.979 387.04 220.099 385.697 237.263 378.171C237.369 381.223 237.45 384.14 237.52 386.659C237.634 390.744 237.746 394.75 237.896 398.495C238.913 423.826 240.636 443.521 245.742 457.301C246.022 458.06 246.399 459.214 246.798 460.438C249.344 468.238 253.605 481.295 264.441 491.521C275.664 502.113 289.237 505.362 301.669 505.361C307.903 505.361 313.853 504.544 319.069 503.425C337.669 499.44 358.792 493.367 374.072 471.61C388.518 451.041 395.541 420.063 396.812 371.249C396.977 369.869 397.129 368.551 397.276 367.295C397.374 366.447 397.475 365.58 397.577 364.716L400.981 365.015L401.858 365.074C420.801 365.938 443.964 361.92 458.19 355.312C469.431 350.096 505.451 331.08 496.97 305.404" fill="black"/>
<path fill-rule="evenodd" clip-rule="evenodd" d="M464.579 310.399C408.254 322.017 404.381 302.947 404.381 302.947C463.852 214.702 488.713 102.689 467.258 75.2742C408.729 0.492218 307.413 35.8593 305.722 36.7775L305.178 36.8749C294.05 34.5649 281.596 33.1887 267.599 32.9603C242.113 32.5426 222.78 39.6418 208.111 50.7664C208.111 50.7664 27.372 -23.6909 35.7779 144.41C37.5661 180.173 87.0352 415.004 146.04 344.074C167.606 318.137 188.444 296.207 188.444 296.207C198.793 303.082 211.183 306.589 224.172 305.33L225.181 304.473C224.868 307.694 225.011 310.843 225.585 314.572C210.385 331.555 214.852 334.537 184.465 340.792C153.718 347.129 171.781 358.41 183.574 361.358C197.871 364.934 230.947 369.998 253.296 338.713L252.404 342.282C258.36 347.053 262.543 373.312 261.842 397.115C261.141 420.92 260.673 437.262 265.365 450.027C270.058 462.792 274.735 491.514 314.681 482.955C348.06 475.802 365.356 457.265 367.763 426.346C369.47 404.364 373.334 407.614 373.578 387.961L376.678 378.657C380.252 348.86 377.246 339.247 397.81 343.718L402.807 344.157C417.943 344.846 437.752 341.723 449.378 336.319C474.413 324.7 489.261 305.302 464.577 310.399H464.579" fill="#336791"/>
<path fill-rule="evenodd" clip-rule="evenodd" d="M218.69 160.403C213.615 159.697 209.018 160.351 206.692 162.111C205.383 163.102 204.979 164.25 204.87 165.04C204.578 167.133 206.045 169.446 206.945 170.64C209.494 174.018 213.218 176.341 216.904 176.852C217.438 176.926 217.969 176.962 218.497 176.962C224.645 176.962 230.232 172.176 230.725 168.644C231.341 164.219 224.918 161.27 218.69 160.403" fill="white"/>
<path fill-rule="evenodd" clip-rule="evenodd" d="M386.842 160.544H386.841C386.357 157.076 380.185 156.087 374.329 156.901C368.481 157.716 362.81 160.356 363.283 163.831C363.664 166.534 368.543 171.149 374.321 171.148C374.808 171.148 375.301 171.115 375.797 171.046C379.653 170.512 382.483 168.063 383.826 166.651C385.874 164.501 387.058 162.102 386.842 160.544" fill="white"/>
<path fill-rule="evenodd" clip-rule="evenodd" d="M483.322 309.079C481.174 302.584 474.262 300.493 462.777 302.866C428.676 309.904 416.465 305.028 412.454 302.076C438.96 261.695 460.765 212.887 472.528 167.346C478.101 145.774 481.179 125.741 481.43 109.413C481.707 91.4879 478.656 78.3186 472.36 70.2733C446.976 37.8388 409.724 20.4414 364.628 19.9633C333.627 19.615 307.434 27.5495 302.356 29.78C291.663 27.1207 280.005 25.4881 267.315 25.2798C244.041 24.9036 223.925 30.4754 207.269 41.8318C200.034 39.14 181.337 32.7216 158.473 29.0388C118.941 22.673 87.529 27.4958 65.1118 43.3771C38.3633 62.3276 26.0148 96.202 28.4077 144.058C29.2128 160.159 38.3857 209.689 52.864 257.124C71.9209 319.555 92.635 354.898 114.432 362.168C116.983 363.019 119.925 363.614 123.168 363.614C131.119 363.614 140.867 360.03 151.009 347.837C167.856 327.57 183.585 310.587 189.383 304.416C197.951 309.016 207.363 311.583 216.991 311.841C217.008 312.093 217.034 312.345 217.056 312.596C215.125 314.887 213.54 316.894 212.19 318.609C205.52 327.076 204.131 328.839 182.659 333.26C176.552 334.52 160.328 337.864 160.092 349.235C159.833 361.658 179.266 366.876 181.481 367.429C189.197 369.361 196.63 370.314 203.719 370.314C220.961 370.313 236.132 364.647 248.258 353.683C247.884 397.975 249.732 441.619 255.049 454.917C259.404 465.802 270.045 492.407 303.656 492.405C308.586 492.405 314.016 491.832 319.988 490.552C355.065 483.031 370.296 467.528 376.19 433.349C379.343 415.082 384.755 371.462 387.299 348.065C392.67 349.74 399.586 350.507 407.061 350.506C422.652 350.506 440.642 347.193 451.925 341.956C464.598 336.071 487.47 321.626 483.322 309.079V309.079V309.079ZM399.788 150.971C399.672 157.879 398.721 164.149 397.713 170.695C396.629 177.735 395.507 185.013 395.225 193.849C394.946 202.448 396.02 211.388 397.059 220.032C399.158 237.493 401.311 255.471 392.975 273.21C391.679 270.909 390.428 268.398 389.282 265.618C388.246 263.106 385.996 259.072 382.882 253.488C370.762 231.754 342.381 180.857 356.91 160.088C361.237 153.905 372.219 147.55 399.788 150.971V150.971V150.971ZM366.372 33.9511C406.777 34.8435 438.737 49.9589 461.367 78.8752C478.723 101.055 459.612 201.977 404.284 289.043C403.738 288.349 403.181 287.648 402.605 286.929C402.376 286.641 402.142 286.349 401.906 286.053C416.203 262.441 413.407 239.08 410.918 218.367C409.896 209.867 408.931 201.839 409.176 194.298C409.43 186.303 410.487 179.449 411.509 172.82C412.766 164.651 414.044 156.199 413.691 146.234C413.954 145.19 414.06 143.955 413.923 142.489C413.022 132.933 402.114 104.338 379.878 78.453C367.717 64.2972 349.979 48.454 325.761 37.7683C336.178 35.6094 350.423 33.5961 366.372 33.9511V33.9511V33.9511ZM140.277 338.913C129.103 352.348 121.386 349.773 118.848 348.928C102.313 343.412 83.1284 308.466 66.2136 253.049C51.5774 205.098 43.0237 156.881 42.3474 143.36C40.2098 100.599 50.5753 70.7973 73.1571 54.7828C109.907 28.7208 170.328 44.3199 194.607 52.232C194.257 52.5758 193.894 52.8982 193.548 53.2476C153.709 93.4833 154.654 162.227 154.752 166.428C154.748 168.049 154.884 170.345 155.071 173.502C155.756 185.064 157.031 206.583 153.624 230.953C150.456 253.599 157.437 275.764 172.773 291.765C174.361 293.421 176.018 294.976 177.73 296.44C170.903 303.751 156.067 319.917 140.277 338.913V338.913V338.913ZM182.85 282.107C170.49 269.211 164.876 251.272 167.447 232.886C171.046 207.142 169.717 184.721 169.004 172.676C168.904 170.991 168.816 169.514 168.763 168.348C174.583 163.188 201.555 148.736 220.788 153.143C229.567 155.154 234.914 161.13 237.138 171.412C248.646 224.637 238.662 246.821 230.639 264.647C228.985 268.32 227.423 271.791 226.088 275.383L225.055 278.159C222.437 285.179 220.001 291.705 218.492 297.902C205.353 297.862 192.57 292.25 182.85 282.107V282.107V282.107ZM184.867 353.888C181.031 352.93 177.58 351.265 175.555 349.884C177.246 349.088 180.256 348.006 185.475 346.931C210.735 341.73 214.635 338.061 223.154 327.244C225.108 324.765 227.322 321.953 230.388 318.529C230.389 318.527 230.39 318.526 230.391 318.525C234.959 313.412 237.047 314.279 240.835 315.85C243.906 317.121 246.895 320.968 248.108 325.203C248.681 327.203 249.326 331 247.218 333.952C229.422 358.869 203.491 358.549 184.867 353.888V353.888V353.888ZM317.062 476.904C286.16 483.525 275.219 467.758 268.009 449.734C263.355 438.096 261.069 385.622 262.691 327.674C262.713 326.903 262.603 326.158 262.39 325.458C262.205 324.107 261.921 322.739 261.527 321.363C259.113 312.932 253.233 305.878 246.179 302.955C243.376 301.793 238.231 299.663 232.049 301.244C233.368 295.812 235.654 289.679 238.132 283.037L239.172 280.242C240.344 277.092 241.812 273.829 243.366 270.376C251.762 251.723 263.26 226.176 250.781 168.461C246.106 146.845 230.497 136.289 206.833 138.74C192.646 140.208 179.668 145.932 173.195 149.214C171.803 149.919 170.53 150.6 169.341 151.264C171.147 129.483 177.974 88.7793 203.509 63.0263C219.585 46.8124 240.996 38.8052 267.084 39.2363C318.486 40.0783 351.448 66.4572 370.05 88.4389C386.079 107.382 394.759 126.462 398.224 136.752C372.173 134.104 354.455 139.247 345.473 152.087C325.933 180.018 356.163 234.232 370.692 260.286C373.356 265.061 375.656 269.188 376.379 270.941C381.11 282.407 387.235 290.062 391.707 295.651C393.078 297.363 394.408 299.023 395.419 300.473C387.529 302.749 373.357 308.004 374.648 334.274C373.606 347.457 366.198 409.172 362.436 430.977C357.469 459.784 346.868 470.514 317.062 476.904V476.904V476.904ZM446.047 329.297C437.979 333.042 424.477 335.852 411.651 336.454C397.484 337.118 390.273 334.867 388.576 333.483C387.779 317.113 393.874 315.402 400.322 313.591C401.336 313.306 402.324 313.029 403.278 312.695C403.872 313.178 404.521 313.657 405.232 314.126C416.619 321.642 436.929 322.453 465.6 316.535C465.705 316.512 465.81 316.492 465.915 316.471C462.048 320.087 455.43 324.94 446.047 329.297V329.297V329.297Z" fill="white"/>
</g>
</g>
<defs>
<clipPath id="clip0_526_3151">
<rect width="485" height="500" fill="white" transform="translate(14 6)"/>
</clipPath>
<clipPath id="clip1_526_3151">
<rect width="484.848" height="500" fill="white" transform="translate(14 6)"/>
</clipPath>
</defs>
</svg>
