<svg width="512" height="512" viewBox="0 0 512 512" fill="none" xmlns="http://www.w3.org/2000/svg">
<path d="M74.4641 203.546L146.676 229.829L219.956 203.157L147.744 176.874L74.4641 203.546Z" fill="#F7F7F4"/>
<path d="M148.407 175.054H147.082L73.8017 201.726V205.365L146.013 231.648H147.338L220.618 204.976V201.337L148.407 175.054ZM147.743 178.931L214.288 203.152L146.674 227.769L80.1285 203.539L147.743 178.931Z" fill="#CCCCCC"/>
<path d="M74.4641 203.546L146.676 229.829V314.701L74.4641 288.418V203.546Z" fill="#EFEEEA"/>
<path d="M75.1263 201.726L72.5275 203.546V288.418L73.8017 290.238L146.013 316.52L148.612 314.701V229.829L147.338 228.009L75.1263 201.726ZM76.395 206.305L144.737 231.177V311.936L76.395 287.056V206.305Z" fill="#CCCCCC"/>
<path d="M146.991 144.205L219.203 170.488L292.483 143.816L220.271 117.533L146.991 144.205Z" fill="#F7F7F4"/>
<path d="M220.933 115.714H219.609L146.328 142.386V146.025L218.54 172.308H219.865L293.145 145.636V141.997L220.933 115.714ZM220.268 119.589L286.813 143.81L219.191 168.427L152.638 144.206L220.268 119.589Z" fill="#CCCCCC"/>
<path d="M146.991 144.205L219.203 170.488V255.36L146.991 229.077V144.205Z" fill="#EFEEEA"/>
<path d="M147.653 142.386L145.054 144.205V229.077L146.328 230.897L218.54 257.18L221.139 255.36V170.488L219.865 168.669L147.653 142.386ZM148.92 146.963L217.262 171.843V252.594L148.92 227.722V146.963Z" fill="#CCCCCC"/>
<path d="M1.93646 315.633L74.1481 341.916L147.428 315.244L75.2168 288.961L1.93646 315.633Z" fill="#F7F7F4"/>
<path d="M75.8792 287.141H74.5545L1.27417 313.813V317.452L73.4859 343.735H74.8105L148.091 317.063V313.424L75.8792 287.141ZM75.2176 291.014L141.771 315.236L74.1409 339.852L7.59564 315.631L75.2176 291.014Z" fill="#CCCCCC"/>
<path d="M1.93646 315.633L74.1481 341.916V426.788L1.93646 400.505V315.633Z" fill="#EFEEEA"/>
<path d="M2.5988 313.813L0 315.633V400.505L1.27417 402.325L73.4858 428.607L76.0846 426.788V341.916L74.8105 340.096L2.5988 313.813ZM3.86984 318.396L72.2044 343.268V424.02L3.86984 399.147V318.396Z" fill="#CCCCCC"/>
<path d="M74.4636 342.006L146.675 368.289V453.161L74.4636 426.878V342.006Z" fill="#EFEEEA"/>
<path d="M75.126 340.186L72.5272 342.006V426.878L73.8013 428.698L146.013 454.981L148.612 453.161V368.289L147.338 366.469L75.126 340.186ZM76.395 344.763L144.737 369.643V450.394L76.395 425.522V344.763Z" fill="#CCCCCC"/>
<path d="M74.4636 256.292L146.675 282.575L219.956 255.903L147.744 229.621L74.4636 256.292Z" fill="#F7F7F4"/>
<path d="M148.406 227.801H147.082L73.8013 254.473V258.112L146.013 284.395H147.338L220.618 257.723V254.084L148.406 227.801ZM147.743 231.68L214.288 255.902L146.674 280.511L80.1285 256.289L147.743 231.68Z" fill="#CCCCCC"/>
<path d="M74.4636 256.292L146.675 282.575V367.448L74.4636 341.165V256.292Z" fill="#EFEEEA"/>
<path d="M75.126 254.473L72.5272 256.292V341.165L73.8013 342.984L146.013 369.267L148.612 367.448V282.575L147.338 280.756L75.126 254.473ZM76.395 259.054L144.737 283.927V364.678L76.395 339.806V259.054Z" fill="#CCCCCC"/>
<path d="M436.783 315.542V400.414L510.064 373.742V288.87L436.783 315.542Z" fill="white"/>
<path d="M509.401 287.051L436.121 313.722L434.847 315.542V400.414L437.445 402.234L510.726 375.562L512 373.742V288.87L509.401 287.051ZM508.122 291.634V372.385L438.719 397.645V316.893L508.122 291.634Z" fill="#CCCCCC"/>
<path d="M364.256 341.916V426.788L437.537 400.116V315.244L364.256 341.916Z" fill="#FFD242"/>
<path d="M436.874 313.424L363.594 340.096L362.32 341.916V426.788L364.919 428.607L438.199 401.936L439.473 400.116V315.244L436.874 313.424ZM435.597 318.001V398.76L366.186 424.02V343.268L435.597 318.001Z" fill="#CCCCCC"/>
<path d="M291.73 368.289V453.161L365.01 426.489V341.617L291.73 368.289Z" fill="#FFD242"/>
<path d="M364.348 339.797L291.067 366.469L289.793 368.289V453.161L292.392 454.981L365.672 428.309L366.946 426.489V341.617L364.348 339.797ZM363.072 344.376V425.127L293.661 450.394V369.643L363.072 344.376Z" fill="#CCCCCC"/>
<path d="M219.202 394.663V479.535L292.483 452.863V367.991L219.202 394.663Z" fill="white"/>
<path d="M291.82 366.171L218.54 392.843L217.266 394.663V479.535L219.865 481.354L293.145 454.682L294.419 452.863V367.991L291.82 366.171ZM290.539 370.751V451.502L221.135 476.769V396.01L290.539 370.751Z" fill="#CCCCCC"/>
<path d="M146.991 368.38L219.202 394.663V479.535L146.991 453.252V368.38Z" fill="#EFEEEA"/>
<path d="M147.653 366.56L145.054 368.38V453.252L146.328 455.071L218.54 481.354L221.139 479.535V394.663L219.865 392.843L147.653 366.56ZM148.92 371.138L217.262 396.01V476.769L148.92 451.889V371.138Z" fill="#CCCCCC"/>
<path d="M436.783 229.828V314.701L510.064 288.029V203.157L436.783 229.828Z" fill="#FFD242"/>
<path d="M509.401 201.337L436.121 228.009L434.847 229.828V314.701L437.445 316.52L510.726 289.848L512 288.029V203.157L509.401 201.337ZM508.122 205.917V286.669L438.719 311.936V231.177L508.122 205.917Z" fill="#CCCCCC"/>
<path d="M364.571 117.832V202.704L437.852 176.032V91.1599L364.571 117.832Z" fill="#353564"/>
<path d="M437.189 89.3402L363.909 116.012L362.635 117.832V202.704L365.234 204.524L438.514 177.852L439.788 176.032V91.1599L437.189 89.3402ZM435.914 93.9189V174.67L366.503 199.937V119.186L435.914 93.9189Z" fill="#CCCCCC"/>
<path d="M364.571 117.832L436.783 144.115L510.064 117.443L437.852 91.1599L364.571 117.832Z" fill="#FFC91D"/>
<path d="M438.514 89.3402H437.19L363.909 116.012V119.652L436.121 145.934H437.446L510.726 119.263V115.623L438.514 89.3402ZM437.851 93.2141L504.412 117.436L436.782 142.052L370.237 117.831L437.851 93.2141Z" fill="#CCCCCC"/>
<path d="M436.783 144.115V228.987L510.064 202.315V117.443L436.783 144.115Z" fill="#FFD242"/>
<path d="M509.401 115.623L436.121 142.295L434.847 144.115V228.987L437.445 230.807L510.726 204.135L512 202.315V117.443L509.401 115.623ZM508.122 120.201V200.96L438.719 226.219V145.468L508.122 120.201Z" fill="#CCCCCC"/>
<path d="M364.256 256.202V341.074L437.537 314.402V229.53L364.256 256.202Z" fill="#FFD242"/>
<path d="M436.874 227.71L363.594 254.382L362.32 256.202V341.074L364.919 342.894L438.199 316.222L439.473 314.402V229.53L436.874 227.71ZM435.597 232.292V313.044L366.186 338.303V257.552L435.597 232.292Z" fill="#CCCCCC"/>
<path d="M364.256 170.488V255.36L437.537 228.688V143.816L364.256 170.488Z" fill="#3775A9"/>
<path d="M436.874 141.997L363.594 168.668L362.32 170.488V255.36L364.919 257.18L438.199 230.508L439.473 228.688V143.816L436.874 141.997ZM435.597 146.576V227.327L366.186 252.594V171.843L435.597 146.576Z" fill="#CCCCCC"/>
<path d="M292.045 58.4916L364.257 84.7745L437.537 58.1026L365.325 31.8197L292.045 58.4916Z" fill="#2F6491"/>
<path d="M365.987 30H364.663L291.382 56.6719V60.3113L363.594 86.5942H364.919L438.199 59.9223V56.2829L365.987 30ZM365.318 33.8725L431.863 58.1018L364.249 82.7106L297.704 58.4891L365.318 33.8725Z" fill="#CCCCCC"/>
<path d="M364.256 84.7745V169.647L437.537 142.975V58.1026L364.256 84.7745Z" fill="#3775A9"/>
<path d="M436.874 56.283L363.594 82.9549L362.32 84.7746V169.647L364.919 171.466L438.199 144.795L439.473 142.975V58.1027L436.874 56.283ZM435.597 60.8671V141.618L366.186 166.878V86.1266L435.597 60.8671Z" fill="#CCCCCC"/>
<path d="M219.518 341.165L291.73 367.448L365.01 340.776L292.798 314.493L219.518 341.165Z" fill="#AFAFDE"/>
<path d="M293.461 312.673H292.136L218.856 339.345V342.984L291.067 369.267H292.392L365.672 342.595V338.956L293.461 312.673ZM292.793 316.552L359.338 340.774L291.724 365.383L225.179 341.161L292.793 316.552Z" fill="#CCCCCC"/>
<path d="M291.73 282.575V367.447L365.01 340.776V255.903L291.73 282.575Z" fill="#FFD242"/>
<path d="M364.348 254.084L291.067 280.756L289.793 282.575V367.447L292.392 369.267L365.672 342.595L366.946 340.776V255.903L364.348 254.084ZM363.072 258.667V339.418L293.661 364.678V283.927L363.072 258.667Z" fill="#CCCCCC"/>
<path d="M291.73 196.862V281.734L365.01 255.062V170.19L291.73 196.862Z" fill="#3775A9"/>
<path d="M364.348 168.37L291.067 195.042L289.793 196.862V281.734L292.392 283.554L365.672 256.882L366.946 255.062V170.19L364.348 168.37ZM363.072 172.951V253.702L293.661 278.961V198.21L363.072 172.951Z" fill="#CCCCCC"/>
<path d="M220.271 255.994L292.483 282.277V367.149L220.271 340.866V255.994Z" fill="#E9E9FF"/>
<path d="M220.933 254.174L218.334 255.994V340.866L219.609 342.686L291.82 368.969L294.419 367.149V282.277L293.145 280.457L220.933 254.174ZM222.204 258.752L290.539 283.625V364.384L222.204 339.504V258.752Z" fill="#CCCCCC"/>
<path d="M219.202 308.949V393.821L292.483 367.149V282.277L219.202 308.949Z" fill="#3775A9"/>
<path d="M291.82 280.457L218.54 307.129L217.266 308.949V393.821L219.865 395.641L293.145 368.969L294.419 367.149V282.277L291.82 280.457ZM290.539 285.034V365.793L221.135 391.053V310.302L290.539 285.034Z" fill="#CCCCCC"/>
<path d="M146.991 282.666L219.202 308.949V393.821L146.991 367.538V282.666Z" fill="#2F6491"/>
<path d="M147.653 280.846L145.054 282.666V367.538L146.328 369.358L218.54 395.641L221.139 393.821V308.949L219.865 307.129L147.653 280.846ZM148.92 285.429L217.262 310.302V391.053L148.92 366.181V285.429Z" fill="#CCCCCC"/>
<path d="M146.991 196.952L219.202 223.235L292.483 196.563L220.271 170.28L146.991 196.952Z" fill="#2F6491"/>
<path d="M220.933 168.461H219.609L146.328 195.132V198.772L218.54 225.055H219.865L293.145 198.383V194.743L220.933 168.461ZM220.268 172.339L286.813 196.56L219.199 221.169L152.654 196.948L220.268 172.339Z" fill="#CCCCCC"/>
<path d="M219.202 223.235V308.107L292.483 281.435V196.563L219.202 223.235Z" fill="#3775A9"/>
<path d="M291.82 194.743L218.54 221.415L217.266 223.235V308.107L219.865 309.927L293.145 283.255L294.419 281.435V196.563L291.82 194.743ZM290.539 199.326V280.077L221.135 305.336V224.585L290.539 199.326Z" fill="#CCCCCC"/>
<path d="M146.991 196.952L219.202 223.235V308.107L146.991 281.824V196.952Z" fill="#2F6491"/>
<path d="M147.653 195.132L145.054 196.952V281.824L146.328 283.644L218.54 309.927L221.139 308.107V223.235L219.865 221.415L147.653 195.132ZM148.92 199.713L217.262 224.585V305.336L148.92 280.464V199.713Z" fill="#CCCCCC"/>
<path d="M219.518 84.865V169.737L292.798 143.065V58.1931L219.518 84.865Z" fill="#353564"/>
<path d="M292.136 56.3734L218.856 83.0453L217.581 84.865V169.737L220.18 171.557L293.461 144.885L294.735 143.065V58.1931L292.136 56.3734ZM290.857 60.9523V141.704L221.453 166.971V86.2195L290.857 60.9523Z" fill="#CCCCCC"/>
<path d="M219.518 84.865L291.73 111.148L365.01 84.476L292.798 58.1931L219.518 84.865Z" fill="#2F6491"/>
<path d="M293.461 56.3734H292.136L218.856 83.0453V86.6847L291.067 112.968H292.392L365.672 86.2957V82.6563L293.461 56.3734ZM292.801 60.2474L359.338 84.4689L291.724 109.085L225.179 84.8639L292.801 60.2474Z" fill="#CCCCCC"/>
<path d="M291.73 111.148V196.02L365.01 169.348V84.4761L291.73 111.148Z" fill="#3775A9"/>
<path d="M364.348 82.6564L291.067 109.328L289.793 111.148V196.02L292.392 197.84L365.672 171.168L366.946 169.348V84.4761L364.348 82.6564ZM363.072 87.2342V167.993L293.661 193.253V112.501L363.072 87.2342Z" fill="#CCCCCC"/>
<path d="M219.518 84.8651L291.73 111.148V196.02L219.518 169.737V84.8651Z" fill="#2F6491"/>
<path d="M220.18 83.0453L217.581 84.865V169.737L218.856 171.557L291.067 197.84L293.666 196.02V111.148L292.392 109.328L220.18 83.0453ZM221.453 87.6293L289.788 112.501V193.253L221.453 168.381V87.6293Z" fill="#CCCCCC"/>
<path d="M410.181 377.587C417.954 377.587 424.255 373.175 424.255 367.733C424.255 362.29 417.954 357.878 410.181 357.878C402.408 357.878 396.107 362.29 396.107 367.733C396.107 373.175 402.408 377.587 410.181 377.587Z" fill="white"/>
<path d="M319.085 153.385C326.858 153.385 333.159 148.973 333.159 143.53C333.159 138.088 326.858 133.676 319.085 133.676C311.313 133.676 305.011 138.088 305.011 143.53C305.011 148.973 311.313 153.385 319.085 153.385Z" fill="white"/>
</svg>
