<svg width="512" height="512" viewBox="0 0 512 512" fill="none" xmlns="http://www.w3.org/2000/svg">
<path fill-rule="evenodd" clip-rule="evenodd" d="M502.441 401.711C514.01 421.802 515.131 442.928 505.516 459.628C495.916 476.342 477.133 485.913 453.98 485.913H410.349C410.866 477.779 411.211 469.573 411.211 461.309C411.211 452.054 410.78 442.914 410.148 433.803L438.847 433.774C445.904 433.774 451.609 428.04 451.609 420.969C451.609 418.756 451.048 416.701 450.071 414.861L267.152 96.9228C264.982 93.0569 260.829 90.4413 256.072 90.4413C251.444 90.4413 247.392 92.9132 245.15 96.621L216.105 147.108C304.374 213.647 363.714 316.733 371.833 433.774C372.466 442.871 372.897 452.011 372.897 461.281C372.897 469.544 372.552 477.736 372.049 485.884H229.557C230.333 477.779 230.778 469.587 230.778 461.281C230.778 451.982 230.232 442.813 229.226 433.774C222.184 369.361 190.653 312.278 144.219 271.995L124.214 306.745C159.295 339.397 183.238 383.862 189.748 433.774C190.926 442.785 191.587 451.954 191.587 461.281C191.587 469.587 191.041 477.808 190.107 485.884H58.0197C34.8674 485.884 16.084 476.299 6.48395 459.585C-3.13051 442.885 -2.00954 421.774 9.55943 401.668L36.6782 355.191C52.2281 363.541 66.1971 374.42 78.111 387.297L61.9431 414.832C60.9803 416.657 60.4054 418.727 60.4054 420.94C60.4054 428.011 66.1108 433.731 73.1672 433.731L137.235 433.759C131.86 403.048 117.69 375.34 97.3974 353.395C85.4404 340.503 71.4714 329.596 55.9215 321.246L127.462 196.948C142.696 205.47 157.11 215.242 170.591 226.193C232.244 276.22 273.878 350.104 281.423 433.745H319.766C311.948 335.962 262.812 249.734 189.892 192.651C176.224 181.958 161.752 172.272 146.548 163.735L207.612 57.6458C219.166 37.5402 236.843 26 256.072 26C275.286 26 292.949 37.5402 304.518 57.6458L502.441 401.711V401.711V401.711Z" fill="#FB2D26"/>
</svg>
