<svg width="512" height="512" viewBox="0 0 512 512" fill="none" xmlns="http://www.w3.org/2000/svg">
<mask id="mask0_524_2955" style="mask-type:alpha" maskUnits="userSpaceOnUse" x="0" y="0" width="511" height="512">
<path d="M361.655 509.188C369.688 512.343 378.848 512.14 386.956 508.208L491.958 457.286C502.991 451.935 510.008 440.679 510.008 428.332V83.0428C510.008 70.6958 502.991 59.4413 491.958 54.0902L386.956 3.16577C376.316 -1.99443 363.863 -0.730497 354.525 6.11211C353.19 7.0896 351.919 8.18098 350.728 9.38371L149.713 194.217L62.1556 127.23C54.0048 120.994 42.6042 121.505 35.0341 128.445L6.95156 154.192C-2.30805 162.681 -2.31867 177.363 6.92863 185.866L82.8615 255.686L6.92863 325.507C-2.31867 334.011 -2.30805 348.692 6.95156 357.182L35.0341 382.927C42.6042 389.869 54.0048 390.379 62.1556 384.144L149.713 317.156L350.728 501.99C353.908 505.197 357.641 507.612 361.655 509.188ZM382.584 138.997L230.059 255.686L382.584 372.376V138.997Z" fill="white"/>
</mask>
<g mask="url(#mask0_524_2955)">
<path d="M492.27 54.1695L387.186 3.17487C375.024 -2.72773 360.486 -0.237881 350.94 9.38319L6.93283 325.507C-2.32008 334.011 -2.30944 348.692 6.95578 357.182L35.0554 382.927C42.6302 389.868 54.0378 390.378 62.1934 384.144L476.457 67.3988C490.355 56.7725 510.317 66.763 510.317 84.3451V83.1154C510.317 70.7738 503.302 59.5233 492.27 54.1695Z" fill="#0065A9"/>
<path d="M492.27 457.204L387.186 508.198C375.024 514.1 360.486 511.61 350.94 501.99L6.93283 185.866C-2.32008 177.363 -2.30944 162.681 6.95578 154.191L35.0554 128.445C42.6302 121.505 54.0378 120.994 62.1934 127.23L476.457 443.974C490.355 454.599 510.317 444.61 510.317 427.027V428.258C510.317 440.598 503.302 451.849 492.27 457.204Z" fill="#007ACC"/>
<path d="M386.857 508.239C374.69 514.136 360.153 511.645 350.606 502.023C362.368 513.877 382.482 505.48 382.482 488.714V22.7231C382.482 5.95705 362.368 -2.4395 350.606 9.41595C360.153 -0.206021 374.69 -2.69938 386.857 3.19801L491.922 54.1225C502.963 59.4736 509.984 70.7281 509.984 83.0751V428.365C509.984 440.711 502.963 451.966 491.922 457.317L386.857 508.239Z" fill="#1F9CF0"/>
<path d="M361.656 509.188C369.688 512.341 378.849 512.14 386.955 508.209L491.957 457.284C502.992 451.933 510.008 440.679 510.008 428.332V83.0426C510.008 70.6956 502.992 59.4411 491.959 54.09L386.955 3.16566C376.317 -1.99455 363.863 -0.730622 354.524 6.11198C353.191 7.08947 351.92 8.18085 350.726 9.38358L149.713 194.216L62.1555 127.23C54.0049 120.994 42.6041 121.505 35.034 128.445L6.95156 154.192C-2.30805 162.681 -2.31867 177.363 6.92863 185.866L82.8616 255.686L6.92863 325.507C-2.31867 334.011 -2.30805 348.693 6.95156 357.182L35.034 382.927C42.6041 389.869 54.0049 390.379 62.1555 384.144L149.713 317.156L350.726 501.99C353.906 505.197 357.641 507.612 361.656 509.188ZM382.584 138.997L230.06 255.686L382.584 372.376V138.997Z" fill="url(#paint0_linear_524_2955)" fill-opacity="0.25"/>
</g>
<defs>
<linearGradient id="paint0_linear_524_2955" x1="255.004" y1="-0.000124073" x2="255.004" y2="511.373" gradientUnits="userSpaceOnUse">
<stop stop-color="white"/>
<stop offset="1" stop-color="white" stop-opacity="0"/>
</linearGradient>
</defs>
</svg>
