<svg width="512" height="512" viewBox="0 0 512 512" fill="none" xmlns="http://www.w3.org/2000/svg">
<path fill-rule="evenodd" clip-rule="evenodd" d="M78.9163 332.363L52.1317 341.981L50.6936 420.304L143.413 387.01C111.611 376.51 88.3877 358.036 78.9163 332.363" fill="#FDBD39"/>
<path fill-rule="evenodd" clip-rule="evenodd" d="M92.9334 249.523L0 282.894L52.1318 341.981L78.9164 332.363C69.4727 306.765 75.2965 277.829 92.9334 249.523" fill="#F69833"/>
<path fill-rule="evenodd" clip-rule="evenodd" d="M249.324 136.507C130.982 179.002 54.6876 266.69 78.9164 332.363L507.471 178.477C483.242 112.803 367.666 94.0125 249.324 136.507Z" fill="#FECF33"/>
<path fill-rule="evenodd" clip-rule="evenodd" d="M337.063 374.332C455.405 331.837 531.843 244.538 507.471 178.476L78.9164 332.363C103.288 398.425 218.721 416.827 337.063 374.332Z" fill="#EE6723"/>
<path fill-rule="evenodd" clip-rule="evenodd" d="M507.471 178.476L78.9164 332.363C87.3081 355.109 119.309 366.315 164.21 366.315C207.985 366.315 264.02 355.672 322.44 334.694C440.782 292.2 524.044 223.398 507.471 178.476" fill="#F69833"/>
<path fill-rule="evenodd" clip-rule="evenodd" d="M422.177 144.523C378.402 144.523 322.367 155.166 263.947 176.144C145.605 218.639 62.3432 287.44 78.9163 332.363L507.471 178.476C499.079 155.729 467.078 144.523 422.177 144.523" fill="#FDBD39"/>
<path fill-rule="evenodd" clip-rule="evenodd" d="M398.51 424.451H398.507C385.898 424.451 367.296 413.256 343.217 391.178C314.731 365.056 282.1 326.797 251.333 283.448C220.568 240.102 195.288 196.765 180.15 161.42C163.657 122.904 161.305 99.2216 173.16 91.0305C175.76 89.2364 178.893 88.3275 182.473 88.3275C192.116 88.3275 210.906 95.3847 245.652 129.007L246.411 129.742L246.309 130.787C246.071 133.202 245.852 135.639 245.657 138.031L245.27 142.781L241.861 139.405C204.424 102.332 187.944 98.3299 182.596 98.3299C181.071 98.3299 179.856 98.6348 178.985 99.2365C173.843 102.788 173.512 120.183 189.502 157.521C204.37 192.235 229.283 234.917 259.651 277.702C290.02 320.492 322.152 358.186 350.129 383.84C380.298 411.503 393.893 414.49 398.338 414.49C399.873 414.49 401.12 414.166 402.045 413.526C407.47 409.78 407.476 391.145 389.644 350.957L388.825 349.112L390.617 348.148C392.41 347.184 394.143 346.234 395.768 345.326L397.915 344.127L398.905 346.355C411.549 374.831 423.368 411.024 407.87 421.732C405.257 423.537 402.108 424.451 398.51 424.451V424.451ZM398.507 420.059H398.51L398.508 422.255L398.507 420.059Z" fill="#EE6723"/>
<path fill-rule="evenodd" clip-rule="evenodd" d="M339.936 373.134L339.756 375.323C336.764 411.712 328.886 455.46 308.347 457.231C307.934 457.267 307.505 457.286 307.076 457.286C293.123 457.286 279.922 437.635 267.841 398.878C256.411 362.212 247.541 312.982 242.865 260.256C238.189 207.542 238.26 157.541 243.063 119.464C248.298 77.9711 258.264 56.3023 272.684 55.0585C273.11 55.0199 273.552 55 273.988 55C284.11 55 299.365 66.2661 314.983 118.742L304.785 120.676C299.571 103.14 293.888 88.8779 288.247 79.0776C283.029 70.0126 277.955 65.0205 273.959 65.0205C273.828 65.0205 273.695 65.0259 273.565 65.0369C267.315 65.5764 258.213 80.4786 253.138 120.701C248.421 158.095 248.364 207.347 252.978 259.385C257.595 311.43 266.32 359.924 277.545 395.934C282.573 412.061 288.087 425.352 293.492 434.372C298.476 442.689 303.299 447.269 307.073 447.269C307.203 447.269 307.332 447.263 307.461 447.253C313.441 446.737 324.711 431.23 329.454 376.67L339.936 373.134" fill="#EE6723"/>
</svg>
